<svg width="1423" height="379" viewBox="0 0 1423 379" fill="none" xmlns="http://www.w3.org/2000/svg">
<path d="M247.322 104.845C247.322 100.522 247.961 96.4854 249.239 92.7339C250.517 88.9825 252.297 85.7339 254.581 82.9883C256.891 80.2426 259.746 78.0951 263.144 76.5455C266.542 74.9688 270.266 74.1805 274.317 74.1805C280.95 74.1805 286.373 75.9475 290.586 79.4815C294.8 83.0155 297.559 87.732 298.864 93.631H291.769C290.899 89.0368 288.955 85.5572 285.938 83.1922C282.948 80.8271 279.047 79.6446 274.235 79.6446C268.173 79.6446 263.239 81.996 259.433 86.699C255.627 91.4019 253.724 97.4504 253.724 104.845C253.724 109.711 254.594 114.06 256.334 117.893C258.074 121.726 260.507 124.716 263.633 126.864C266.786 128.984 270.348 130.045 274.317 130.045C277.225 130.045 279.903 129.433 282.35 128.21C284.796 126.986 286.808 125.383 288.385 123.398C289.961 121.414 291.212 119.225 292.136 116.833C293.06 114.441 293.59 112.008 293.726 109.534H274.439V104.07H299.924V134H296.254L294.664 119.28C293.441 124.173 291.035 128.115 287.447 131.105C283.886 134.068 279.509 135.55 274.317 135.55C268.961 135.55 264.218 134.204 260.085 131.513C255.953 128.794 252.786 125.124 250.584 120.503C248.41 115.854 247.322 110.635 247.322 104.845ZM304.473 112.959C304.473 106.353 306.254 101.08 309.815 97.1378C313.376 93.1689 318.025 91.1844 323.761 91.1844C329.524 91.1844 334.159 93.0465 337.666 96.7708C341.173 100.468 342.926 105.565 342.926 112.062V114.916H310.794C310.794 119.021 312.071 122.447 314.627 125.192C317.182 127.938 320.308 129.311 324.005 129.311C330.503 129.311 334.404 126.089 335.708 119.647H342.477C341.662 124.132 339.637 127.775 336.402 130.575C333.194 133.348 329.062 134.734 324.005 134.734C317.753 134.734 312.928 132.804 309.53 128.944C306.159 125.056 304.473 119.728 304.473 112.959ZM310.794 109.452H336.687C336.524 105.701 335.26 102.629 332.895 100.237C330.557 97.8446 327.512 96.6485 323.761 96.6485C320.037 96.6485 317.019 97.8446 314.708 100.237C312.425 102.602 311.12 105.674 310.794 109.452ZM345.558 97.4232V91.9592H352.327V79.6854H358.485V91.9592H366.599V97.4232H358.485V123.724C358.485 127.367 359.599 129.188 361.828 129.188C362.916 129.188 364.357 128.889 366.151 128.291V133.674C363.922 134.381 361.584 134.734 359.137 134.734C357.017 134.734 355.345 134 354.122 132.532C352.925 131.064 352.327 128.821 352.327 125.804V97.4232H345.558ZM380.387 134L401.998 75.4446H410.154L431.643 134H425.078L418.554 115.569H393.558L386.993 134H380.387ZM395.474 110.105H416.596L406.035 80.297L395.474 110.105ZM435.05 134V75.4446H441.33V134H435.05ZM449.019 113.326V107.373H464.473V113.326H449.019ZM471.265 134V91.9592H477.545L477.3 98.932C479.638 93.7669 483.104 91.1844 487.698 91.1844C488.867 91.1844 489.941 91.3611 490.919 91.7145V98.0757C489.696 97.6135 488.405 97.3825 487.046 97.3825C484.354 97.3825 482.098 98.4427 480.277 100.563C478.455 102.683 477.545 105.375 477.545 108.637V134H471.265ZM492.125 112.959C492.125 106.353 493.905 101.08 497.467 97.1378C501.028 93.1689 505.676 91.1844 511.412 91.1844C517.175 91.1844 521.81 93.0465 525.317 96.7708C528.824 100.468 530.577 105.565 530.577 112.062V114.916H498.445C498.445 119.021 499.723 122.447 502.278 125.192C504.834 127.938 507.96 129.311 511.657 129.311C518.154 129.311 522.055 126.089 523.36 119.647H530.129C529.313 124.132 527.288 127.775 524.053 130.575C520.845 133.348 516.713 134.734 511.657 134.734C505.404 134.734 500.579 132.804 497.181 128.944C493.81 125.056 492.125 119.728 492.125 112.959ZM498.445 109.452H524.338C524.175 105.701 522.911 102.629 520.546 100.237C518.208 97.8446 515.164 96.6485 511.412 96.6485C507.688 96.6485 504.67 97.8446 502.36 100.237C500.076 102.602 498.771 105.674 498.445 109.452ZM534.392 123.072C534.392 120.19 535.507 117.825 537.736 115.977C539.965 114.101 543.377 112.483 547.971 111.124L556.412 108.596C558.695 107.944 560.218 107.237 560.979 106.476C561.74 105.687 562.121 104.505 562.121 102.928C562.121 100.971 561.305 99.4349 559.674 98.3203C558.043 97.2058 555.651 96.6485 552.497 96.6485C549.289 96.6485 546.897 97.2058 545.321 98.3203C543.771 99.4349 542.806 101.229 542.425 103.703H535.616C535.915 99.598 537.614 96.4854 540.713 94.365C543.812 92.2446 547.55 91.1844 551.926 91.1844C557.037 91.1844 561.047 92.1902 563.956 94.2019C566.864 96.2135 568.319 99.3533 568.319 103.621V124.866C568.319 127.829 569.297 129.311 571.255 129.311C571.907 129.311 572.641 129.134 573.457 128.781V134C571.907 134.489 570.344 134.734 568.767 134.734C567.082 134.734 565.668 134.082 564.526 132.777C563.385 131.472 562.759 129.447 562.651 126.701C560.068 129.664 557.622 131.744 555.311 132.94C553.027 134.136 550.173 134.734 546.748 134.734C543.159 134.734 540.196 133.674 537.858 131.553C535.548 129.406 534.392 126.579 534.392 123.072ZM540.876 122.99C540.876 124.975 541.555 126.538 542.915 127.68C544.274 128.821 545.987 129.392 548.053 129.392C550.689 129.392 553.231 128.604 555.678 127.027C558.124 125.45 560.272 123.099 562.121 119.973V110.186C561.278 111.056 560.245 111.79 559.022 112.388C557.798 112.959 556.222 113.544 554.291 114.142L548.338 115.977C545.728 116.792 543.825 117.73 542.629 118.79C541.46 119.85 540.876 121.25 540.876 122.99ZM580.778 129.025C577.489 125.219 575.844 119.864 575.844 112.959C575.844 106.054 577.489 100.699 580.778 96.8931C584.095 93.0873 588.662 91.1844 594.479 91.1844C597.062 91.1844 599.495 91.8232 601.778 93.1009C604.062 94.3786 605.883 96.1863 607.243 98.5242V75.4446H613.481V134H607.243V127.19C605.557 129.746 603.6 131.649 601.371 132.899C599.142 134.122 596.844 134.734 594.479 134.734C588.662 134.734 584.095 132.831 580.778 129.025ZM582.042 112.959C582.042 118.369 583.252 122.447 585.672 125.192C588.091 127.911 591.136 129.27 594.806 129.27C598.503 129.27 601.52 127.938 603.858 125.274C606.196 122.583 607.365 118.478 607.365 112.959C607.365 107.386 606.223 103.282 603.94 100.645C601.683 98.0077 598.639 96.6893 594.806 96.6893C590.973 96.6893 587.887 98.0349 585.549 100.726C583.211 103.417 582.042 107.495 582.042 112.959ZM616.032 91.9592H622.801L634.749 126.252L646.574 91.9592H653.098L635.32 142.074C633.172 148.163 630.005 151.208 625.819 151.208C624.025 151.208 622.353 150.882 620.803 150.229V144.847C622.298 145.472 623.726 145.784 625.085 145.784C626.145 145.784 627.042 145.377 627.776 144.561C628.537 143.746 629.19 142.468 629.733 140.728L631.772 134.53L616.032 91.9592ZM659.954 91.9592H666.315L675.367 126.293L684.828 91.9592H691.76L700.975 126.293L710.313 91.9592H716.634L704.604 134H697.999L688.253 98.932L678.548 134H672.065L659.954 91.9592ZM719.062 83.3553V75.4446H725.586V83.3553H719.062ZM719.185 134V91.9592H725.464V134H719.185ZM730.299 97.4232V91.9592H737.068V79.6854H743.225V91.9592H751.339V97.4232H743.225V123.724C743.225 127.367 744.339 129.188 746.569 129.188C747.656 129.188 749.097 128.889 750.891 128.291V133.674C748.662 134.381 746.324 134.734 743.877 134.734C741.757 134.734 740.085 134 738.862 132.532C737.666 131.064 737.068 128.821 737.068 125.804V97.4232H730.299ZM756.419 134V75.4446H762.698V98.3203C766.803 93.563 771.737 91.1844 777.5 91.1844C781.496 91.1844 784.609 92.299 786.838 94.5281C789.067 96.7572 790.182 99.8427 790.182 103.784V134H783.902V104.518C783.902 101.773 783.25 99.7883 781.945 98.565C780.667 97.3145 778.791 96.6893 776.318 96.6893C772.593 96.6893 769.386 97.9126 766.694 100.359C764.03 102.806 762.698 105.619 762.698 108.8V134H756.419Z" fill="white"/>
<path d="M833.746 106.219C840.774 106.219 846.491 100.485 846.491 93.4341C846.491 86.3836 840.774 80.6462 833.746 80.6462C826.718 80.6462 821.001 86.3812 821.001 93.4317C821.001 100.482 826.718 106.217 833.746 106.217" fill="white"/>
<path d="M865.641 112.642C858.613 112.642 852.896 118.377 852.896 125.428C852.896 132.478 858.613 138.213 865.641 138.213C872.67 138.213 878.387 132.478 878.387 125.428C878.387 118.377 872.67 112.642 865.641 112.642Z" fill="white"/>
<path d="M846.165 128.312C847.65 122.77 846.165 117.868 852.139 111.88C858.111 105.89 862.985 107.382 868.509 105.892C868.938 105.792 869.361 105.67 869.773 105.529C869.778 105.529 869.78 105.529 869.783 105.527C874.786 103.798 878.389 99.0305 878.389 93.4341C878.387 86.3812 872.67 80.6462 865.641 80.6462C860.062 80.6462 855.309 84.261 853.586 89.2797C853.586 89.2797 853.584 89.2892 853.582 89.294C853.441 89.7047 853.32 90.1273 853.222 90.5546C851.737 96.0938 853.184 101.029 847.258 106.974C841.331 112.919 836.4 111.479 830.878 112.969C830.45 113.069 830.031 113.189 829.621 113.33C829.617 113.33 829.612 113.332 829.609 113.334C824.604 115.063 821.001 119.831 821.001 125.427C821.001 132.478 826.718 138.213 833.746 138.213C839.325 138.213 844.078 134.598 845.801 129.579C845.801 129.579 845.801 129.579 845.801 129.577C845.889 129.322 845.97 129.061 846.041 128.799C846.084 128.639 846.125 128.474 846.163 128.312" fill="white"/>
<path d="M909.809 106.526C909.809 115.298 914.229 118.161 920.027 118.161C925.825 118.161 930.055 115.298 930.055 106.526C930.055 97.7539 925.825 94.8911 920.027 94.8911C914.229 94.8911 909.809 97.7507 909.809 106.526ZM919.223 145.817C905.485 145.817 897.786 140.857 897.786 129.606H911.096C910.906 135.279 914.422 136.377 920.03 136.377C925.638 136.377 929.917 134.85 929.917 128.127V124.264C927.398 126.743 923.691 128.411 918.888 128.411C905.958 128.411 897.782 121.259 897.782 106.526C897.782 91.7928 906.244 84.1631 917.604 84.1631C922.549 84.1631 926.825 86.1189 929.917 88.9784V84.9248H942.037V128.124C942.037 140.857 933.91 145.814 919.219 145.814" fill="white"/>
<path d="M963.335 118.639C967.614 118.639 971.607 116.873 973.364 112.632V105.768C971.272 108.008 968.657 109.676 964.474 110.535L962.097 111.012C958.863 111.68 957.534 112.632 957.534 114.921C957.534 117.209 959.816 118.639 963.335 118.639ZM973.364 123.79C970.037 127.224 966.234 128.892 960.482 128.892C951.402 128.892 944.987 123.696 944.987 114.921C944.987 107.769 948.883 104.286 961.289 102.188L968.087 101.046C972.27 100.329 973.364 99.4709 973.364 97.5635C973.364 95.656 972.604 94.3199 966.376 94.3199C961.717 94.3199 958.104 95.656 958.58 100.136H946.033C945.177 88.5008 955.968 84.1631 966.282 84.1631C978.402 84.1631 985.438 88.8816 985.438 100.087V128.124H973.364V123.787V123.79Z" fill="white"/>
<path d="M1001.27 68H989.148V128.127H1001.27V68Z" fill="white"/>
<path d="M1022.56 118.639C1026.84 118.639 1030.83 116.873 1032.59 112.632V105.768C1030.5 108.008 1027.88 109.676 1023.7 110.535L1021.32 111.012C1018.09 111.68 1016.76 112.632 1016.76 114.921C1016.76 117.209 1019.04 118.639 1022.56 118.639M1032.59 123.79C1029.27 127.224 1025.47 128.892 1019.71 128.892C1010.63 128.892 1004.22 123.696 1004.22 114.921C1004.22 107.769 1008.11 104.286 1020.52 102.188L1027.32 101.046C1031.5 100.329 1032.59 99.4709 1032.59 97.5635C1032.59 95.656 1031.84 94.3199 1025.61 94.3199C1020.95 94.3199 1017.33 95.656 1017.81 100.136H1005.26C1004.41 88.5008 1015.2 84.1631 1025.51 84.1631C1037.63 84.1631 1044.67 88.8816 1044.67 100.087V128.124H1032.59V123.787V123.79Z" fill="white"/>
<path d="M1066.97 116.492L1058.94 128.127H1044.39L1059.6 106.623L1044.63 84.928H1059.13L1067.11 96.705L1075.1 84.928H1089.41L1074.2 106.575L1089.31 128.127H1074.86L1066.97 116.492Z" fill="white"/>
<path d="M1133.22 84.928L1115.16 134.566C1112.93 140.669 1110.6 145.82 1103.7 145.82C1100.85 145.82 1097.72 145.152 1094.67 144.245V133.23L1096.86 133.898C1101.23 135.234 1103.18 134.185 1104.28 131.132L1105.46 127.795L1089.02 84.928H1102.28L1111.26 111.296L1120.58 84.928H1133.22Z" fill="white"/>
<path d="M273.544 185.766H293.736V188.127H284.991V211H282.289V188.127H273.544V185.766ZM305.453 192.87V211H302.752V208.258C300.871 210.44 298.65 211.32 296.368 211.32C292.906 211.32 290.905 209.279 290.905 205.897V192.87H293.607V205.577C293.607 208.038 294.828 208.959 296.889 208.959C300.151 208.959 302.752 206.417 302.752 203.736V192.87H305.453ZM308.468 211V192.87H311.17L311.07 195.892C312.15 193.53 313.671 192.55 315.552 192.55C316.112 192.55 316.553 192.63 316.933 192.77V195.511C316.513 195.351 315.972 195.211 315.272 195.211C312.971 195.211 311.17 197.252 311.17 200.074V211H308.468ZM318.348 211V192.87H321.05V195.611C322.931 193.43 325.152 192.55 327.433 192.55C330.895 192.55 332.897 194.591 332.897 197.973V211H330.195V198.293C330.195 195.832 328.974 194.911 326.913 194.911C323.651 194.911 321.05 197.452 321.05 200.134V211H318.348ZM341.208 205.397H344.089C344.089 207.938 345.59 208.979 348.192 208.979C351.013 208.979 352.754 207.978 352.754 206.257C352.754 205.017 351.994 204.256 350.333 203.616L346.07 201.975C343.849 201.115 341.888 199.854 341.888 197.172C341.888 194.391 344.65 192.55 348.192 192.55C351.734 192.55 354.435 193.79 354.915 197.492H351.994C351.734 195.451 350.473 194.871 348.192 194.871C345.83 194.871 344.63 195.992 344.63 197.172C344.63 198.353 345.23 199.073 347.431 199.934L351.093 201.375C353.915 202.475 355.416 203.676 355.416 206.097C355.416 209.419 352.634 211.32 348.192 211.32C344.229 211.32 341.428 209.399 341.208 205.397ZM357.035 185.766H359.856V189.168H357.035V185.766ZM357.095 192.87H359.796V211H357.095V192.87ZM362.792 185.766H365.493V211H362.792V185.766ZM376.213 211.32C371.03 211.32 367.728 207.438 367.728 201.935C367.728 196.432 371.03 192.55 376.213 192.55C381.395 192.55 384.697 196.432 384.697 201.935C384.697 207.438 381.395 211.32 376.213 211.32ZM376.213 194.891C372.771 194.891 370.509 197.673 370.509 201.935C370.509 206.197 372.811 208.979 376.213 208.979C379.614 208.979 381.916 206.197 381.916 201.935C381.916 197.673 379.614 194.891 376.213 194.891ZM402.756 202.775H388.908C388.908 206.337 391.449 208.979 394.611 208.979C397.773 208.979 399.174 207.178 399.654 204.817H402.575C401.915 208.519 399.133 211.32 394.611 211.32C389.148 211.32 386.186 207.678 386.186 201.935C386.186 196.192 389.608 192.55 394.491 192.55C399.374 192.55 402.756 195.852 402.756 201.535V202.775ZM388.908 200.414H400.074C399.934 197.252 397.793 194.891 394.491 194.891C391.189 194.891 389.168 197.252 388.908 200.414ZM417.575 185.766H420.276V211H417.575V208.058C416.054 210.36 413.993 211.32 412.072 211.32C407.089 211.32 404.047 207.938 404.047 201.935C404.047 195.932 407.089 192.55 412.072 192.55C414.273 192.55 416.374 193.67 417.575 195.712V185.766ZM406.709 201.935C406.709 206.878 409.27 208.959 412.212 208.959C415.153 208.959 417.635 206.978 417.635 201.935C417.635 196.892 415.313 194.911 412.212 194.911C409.11 194.911 406.709 196.992 406.709 201.935ZM443.031 185.766H445.732V211H443.031V208.058C441.51 210.36 439.449 211.32 437.527 211.32C432.545 211.32 429.503 207.938 429.503 201.935C429.503 195.932 432.545 192.55 437.527 192.55C439.729 192.55 441.83 193.67 443.031 195.712V185.766ZM432.164 201.935C432.164 206.878 434.726 208.959 437.668 208.959C440.609 208.959 443.091 206.978 443.091 201.935C443.091 196.892 440.769 194.911 437.668 194.911C434.566 194.911 432.164 196.992 432.164 201.935ZM451.423 197.933H448.482C448.742 194.171 452.044 192.55 455.526 192.55C459.708 192.55 462.59 194.071 462.59 197.913V207.058C462.59 208.659 463.27 208.979 463.85 208.979C464.17 208.979 464.391 208.939 464.791 208.759V211C464.01 211.24 463.47 211.32 462.77 211.32C461.429 211.32 460.228 210.38 460.148 207.858C457.967 210.38 456.286 211.32 453.284 211.32C450.223 211.32 447.961 209.359 447.961 206.297C447.961 203.716 450.003 202.255 453.805 201.135L457.447 200.054C459.428 199.474 459.908 198.953 459.908 197.613C459.908 195.952 458.547 194.891 455.766 194.891C452.984 194.891 451.744 195.832 451.423 197.933ZM459.908 204.957V200.734C459.128 201.535 458.027 201.975 456.546 202.435L453.965 203.236C451.824 203.896 450.763 204.696 450.763 206.257C450.763 208.018 452.124 209.019 453.845 209.019C456.046 209.019 458.267 207.738 459.908 204.957ZM467.38 187.587H470.041V192.87H473.543V195.231H470.041V206.578C470.041 208.559 470.782 208.919 471.482 208.919C472.062 208.919 472.403 208.859 473.343 208.539V210.86C472.623 211.08 471.502 211.32 470.321 211.32C468.56 211.32 467.38 210.14 467.38 207.458V195.231H464.458V192.87H467.38V187.587ZM478.075 197.933H475.133C475.393 194.171 478.695 192.55 482.177 192.55C486.359 192.55 489.241 194.071 489.241 197.913V207.058C489.241 208.659 489.921 208.979 490.502 208.979C490.822 208.979 491.042 208.939 491.442 208.759V211C490.662 211.24 490.121 211.32 489.421 211.32C488.08 211.32 486.88 210.38 486.799 207.858C484.618 210.38 482.937 211.32 479.936 211.32C476.874 211.32 474.613 209.359 474.613 206.297C474.613 203.716 476.654 202.255 480.456 201.135L484.098 200.054C486.079 199.474 486.559 198.953 486.559 197.613C486.559 195.952 485.199 194.891 482.417 194.891C479.635 194.891 478.395 195.832 478.075 197.933ZM486.559 204.957V200.734C485.779 201.535 484.678 201.975 483.197 202.435L480.616 203.236C478.475 203.896 477.414 204.696 477.414 206.257C477.414 208.018 478.775 209.019 480.496 209.019C482.697 209.019 484.918 207.738 486.559 204.957ZM502.3 197.933H499.358C499.619 194.171 502.92 192.55 506.402 192.55C510.585 192.55 513.466 194.071 513.466 197.913V207.058C513.466 208.659 514.147 208.979 514.727 208.979C515.047 208.979 515.267 208.939 515.668 208.759V211C514.887 211.24 514.347 211.32 513.646 211.32C512.306 211.32 511.105 210.38 511.025 207.858C508.844 210.38 507.163 211.32 504.161 211.32C501.099 211.32 498.838 209.359 498.838 206.297C498.838 203.716 500.879 202.255 504.681 201.135L508.323 200.054C510.305 199.474 510.785 198.953 510.785 197.613C510.785 195.952 509.424 194.891 506.643 194.891C503.861 194.891 502.62 195.832 502.3 197.933ZM510.785 204.957V200.734C510.004 201.535 508.904 201.975 507.423 202.435L504.842 203.236C502.7 203.896 501.64 204.696 501.64 206.257C501.64 208.018 503 209.019 504.721 209.019C506.923 209.019 509.144 207.738 510.785 204.957ZM517.319 211V192.87H520.02V195.611C521.901 193.43 524.123 192.55 526.404 192.55C529.866 192.55 531.867 194.591 531.867 197.973V211H529.165V198.293C529.165 195.832 527.945 194.911 525.884 194.911C522.622 194.911 520.02 197.452 520.02 200.134V211H517.319ZM547.208 185.766H549.91V211H547.208V208.058C545.687 210.36 543.626 211.32 541.705 211.32C536.723 211.32 533.681 207.938 533.681 201.935C533.681 195.932 536.723 192.55 541.705 192.55C543.906 192.55 546.008 193.67 547.208 195.712V185.766ZM536.342 201.935C536.342 206.878 538.904 208.959 541.845 208.959C544.787 208.959 547.268 206.978 547.268 201.935C547.268 196.892 544.947 194.911 541.845 194.911C538.744 194.911 536.342 196.992 536.342 201.935ZM562.599 204.656V211H559.897V185.766H562.599V201.335L571.183 192.87H574.485L567.621 199.694L574.825 211H571.704L565.76 201.515L562.599 204.656ZM575.684 211V192.87H578.385V195.611C580.266 193.43 582.488 192.55 584.769 192.55C588.231 192.55 590.232 194.591 590.232 197.973V211H587.53V198.293C587.53 195.832 586.31 194.911 584.249 194.911C580.987 194.911 578.385 197.452 578.385 200.134V211H575.684ZM600.531 211.32C595.348 211.32 592.046 207.438 592.046 201.935C592.046 196.432 595.348 192.55 600.531 192.55C605.713 192.55 609.015 196.432 609.015 201.935C609.015 207.438 605.713 211.32 600.531 211.32ZM600.531 194.891C597.089 194.891 594.827 197.673 594.827 201.935C594.827 206.197 597.129 208.979 600.531 208.979C603.932 208.979 606.234 206.197 606.234 201.935C606.234 197.673 603.932 194.891 600.531 194.891ZM625.413 211L621.21 195.892L617.028 211H614.226L609.003 192.87H611.745L615.647 207.678L619.729 192.87H622.711L626.693 207.678L630.715 192.87H633.437L628.254 211H625.413ZM634.188 185.766H636.889V211H634.188V185.766ZM655.693 202.775H641.846C641.846 206.337 644.387 208.979 647.549 208.979C650.711 208.979 652.111 207.178 652.592 204.817H655.513C654.853 208.519 652.071 211.32 647.549 211.32C642.086 211.32 639.124 207.678 639.124 201.935C639.124 196.192 642.546 192.55 647.429 192.55C652.312 192.55 655.693 195.852 655.693 201.535V202.775ZM641.846 200.414H653.012C652.872 197.252 650.731 194.891 647.429 194.891C644.127 194.891 642.106 197.252 641.846 200.414ZM670.513 185.766H673.214V211H670.513V208.058C668.992 210.36 666.931 211.32 665.01 211.32C660.027 211.32 656.985 207.938 656.985 201.935C656.985 195.932 660.027 192.55 665.01 192.55C667.211 192.55 669.312 193.67 670.513 195.712V185.766ZM659.647 201.935C659.647 206.878 662.208 208.959 665.15 208.959C668.091 208.959 670.573 206.978 670.573 201.935C670.573 196.892 668.251 194.911 665.15 194.911C662.048 194.911 659.647 196.992 659.647 201.935ZM691.672 192.87V210.48C691.672 216.163 689.071 218.424 683.608 218.424C679.206 218.424 676.184 216.043 675.644 212.661H678.885C679.206 214.842 680.606 216.303 683.748 216.303C686.89 216.303 688.971 215.082 688.971 211.64V208.178C687.69 210.099 685.749 211.32 683.468 211.32C678.485 211.32 675.443 207.938 675.443 201.935C675.443 195.932 678.485 192.55 683.468 192.55C685.389 192.55 687.45 193.51 688.971 195.812V192.87H691.672ZM689.031 201.935C689.031 196.892 686.55 194.911 683.608 194.911C680.666 194.911 678.105 196.992 678.105 201.935C678.105 206.878 680.506 208.959 683.608 208.959C686.71 208.959 689.031 206.978 689.031 201.935ZM710.471 202.775H696.623C696.623 206.337 699.165 208.979 702.327 208.979C705.488 208.979 706.889 207.178 707.369 204.817H710.291C709.631 208.519 706.849 211.32 702.327 211.32C696.864 211.32 693.902 207.678 693.902 201.935C693.902 196.192 697.324 192.55 702.207 192.55C707.089 192.55 710.471 195.852 710.471 201.535V202.775ZM696.623 200.414H707.79C707.65 197.252 705.508 194.891 702.207 194.891C698.905 194.891 696.884 197.252 696.623 200.414ZM719.461 185.766H722.282V189.168H719.461V185.766ZM719.521 192.87H722.222V211H719.521V192.87ZM725.217 211V192.87H727.919V195.611C729.8 193.43 732.021 192.55 734.302 192.55C737.764 192.55 739.765 194.591 739.765 197.973V211H737.064V198.293C737.064 195.832 735.843 194.911 733.782 194.911C730.52 194.911 727.919 197.452 727.919 200.134V211H725.217ZM743.981 187.587H746.642V192.87H750.144V195.231H746.642V206.578C746.642 208.559 747.383 208.919 748.083 208.919C748.663 208.919 749.004 208.859 749.944 208.539V210.86C749.224 211.08 748.103 211.32 746.922 211.32C745.161 211.32 743.981 210.14 743.981 207.458V195.231H741.059V192.87H743.981V187.587ZM759.698 211.32C754.515 211.32 751.214 207.438 751.214 201.935C751.214 196.432 754.515 192.55 759.698 192.55C764.881 192.55 768.183 196.432 768.183 201.935C768.183 207.438 764.881 211.32 759.698 211.32ZM759.698 194.891C756.256 194.891 753.995 197.673 753.995 201.935C753.995 206.197 756.296 208.979 759.698 208.979C763.1 208.979 765.402 206.197 765.402 201.935C765.402 197.673 763.1 194.891 759.698 194.891ZM780.131 197.933H777.19C777.45 194.171 780.752 192.55 784.234 192.55C788.416 192.55 791.298 194.071 791.298 197.913V207.058C791.298 208.659 791.978 208.979 792.558 208.979C792.879 208.979 793.099 208.939 793.499 208.759V211C792.718 211.24 792.178 211.32 791.478 211.32C790.137 211.32 788.936 210.38 788.856 207.858C786.675 210.38 784.994 211.32 781.993 211.32C778.931 211.32 776.67 209.359 776.67 206.297C776.67 203.716 778.711 202.255 782.513 201.135L786.155 200.054C788.136 199.474 788.616 198.953 788.616 197.613C788.616 195.952 787.255 194.891 784.474 194.891C781.692 194.891 780.452 195.832 780.131 197.933ZM788.616 204.957V200.734C787.836 201.535 786.735 201.975 785.254 202.435L782.673 203.236C780.532 203.896 779.471 204.696 779.471 206.257C779.471 208.018 780.832 209.019 782.553 209.019C784.754 209.019 786.975 207.738 788.616 204.957ZM800.395 205.397H803.276C803.276 207.938 804.777 208.979 807.379 208.979C810.2 208.979 811.941 207.978 811.941 206.257C811.941 205.017 811.181 204.256 809.52 203.616L805.257 201.975C803.036 201.115 801.075 199.854 801.075 197.172C801.075 194.391 803.837 192.55 807.379 192.55C810.921 192.55 813.622 193.79 814.102 197.492H811.181C810.921 195.451 809.66 194.871 807.379 194.871C805.017 194.871 803.817 195.992 803.817 197.172C803.817 198.353 804.417 199.073 806.618 199.934L810.28 201.375C813.102 202.475 814.603 203.676 814.603 206.097C814.603 209.419 811.821 211.32 807.379 211.32C803.416 211.32 800.615 209.399 800.395 205.397ZM816.282 211V185.766H818.983V195.611C820.864 193.43 823.086 192.55 825.367 192.55C828.829 192.55 830.83 194.591 830.83 197.973V211H828.128V198.293C828.128 195.832 826.908 194.911 824.847 194.911C821.585 194.911 818.983 197.452 818.983 200.134V211H816.282ZM836.106 197.933H833.164C833.424 194.171 836.726 192.55 840.208 192.55C844.391 192.55 847.272 194.071 847.272 197.913V207.058C847.272 208.659 847.952 208.979 848.533 208.979C848.853 208.979 849.073 208.939 849.473 208.759V211C848.693 211.24 848.153 211.32 847.452 211.32C846.111 211.32 844.911 210.38 844.831 207.858C842.65 210.38 840.969 211.32 837.967 211.32C834.905 211.32 832.644 209.359 832.644 206.297C832.644 203.716 834.685 202.255 838.487 201.135L842.129 200.054C844.11 199.474 844.591 198.953 844.591 197.613C844.591 195.952 843.23 194.891 840.448 194.891C837.667 194.891 836.426 195.832 836.106 197.933ZM844.591 204.957V200.734C843.81 201.535 842.71 201.975 841.229 202.435L838.647 203.236C836.506 203.896 835.446 204.696 835.446 206.257C835.446 208.018 836.806 209.019 838.527 209.019C840.728 209.019 842.95 207.738 844.591 204.957ZM851.125 211V192.87H853.826L853.726 195.892C854.807 193.53 856.327 192.55 858.208 192.55C858.769 192.55 859.209 192.63 859.589 192.77V195.511C859.169 195.351 858.629 195.211 857.928 195.211C855.627 195.211 853.826 197.252 853.826 200.074V211H851.125ZM876.321 202.775H862.474C862.474 206.337 865.015 208.979 868.177 208.979C871.339 208.979 872.739 207.178 873.22 204.817H876.141C875.481 208.519 872.699 211.32 868.177 211.32C862.714 211.32 859.752 207.678 859.752 201.935C859.752 196.192 863.174 192.55 868.057 192.55C872.94 192.55 876.321 195.852 876.321 201.535V202.775ZM862.474 200.414H873.64C873.5 197.252 871.359 194.891 868.057 194.891C864.755 194.891 862.734 197.252 862.474 200.414ZM891.141 185.766H893.842V211H891.141V208.058C889.62 210.36 887.559 211.32 885.637 211.32C880.655 211.32 877.613 207.938 877.613 201.935C877.613 195.932 880.655 192.55 885.637 192.55C887.839 192.55 889.94 193.67 891.141 195.712V185.766ZM880.275 201.935C880.275 206.878 882.836 208.959 885.778 208.959C888.719 208.959 891.201 206.978 891.201 201.935C891.201 196.892 888.879 194.911 885.778 194.911C882.676 194.911 880.275 196.992 880.275 201.935ZM918.678 198.653H915.816C915.576 196.072 913.995 194.891 911.334 194.891C907.932 194.891 905.851 197.653 905.851 201.935C905.851 206.217 908.252 208.979 911.334 208.979C914.415 208.979 915.716 207.278 915.876 204.817H918.738C918.257 209.099 915.476 211.32 911.234 211.32C905.81 211.32 903.069 207.398 903.069 201.935C903.069 196.472 906.531 192.55 911.334 192.55C915.656 192.55 918.117 194.811 918.678 198.653ZM928.465 211.32C923.282 211.32 919.981 207.438 919.981 201.935C919.981 196.432 923.282 192.55 928.465 192.55C933.648 192.55 936.95 196.432 936.95 201.935C936.95 207.438 933.648 211.32 928.465 211.32ZM928.465 194.891C925.023 194.891 922.762 197.673 922.762 201.935C922.762 206.197 925.063 208.979 928.465 208.979C931.867 208.979 934.168 206.197 934.168 201.935C934.168 197.673 931.867 194.891 928.465 194.891ZM939.199 211V192.87H941.901V195.611C943.782 193.43 946.003 192.55 948.284 192.55C951.746 192.55 953.747 194.591 953.747 197.973V211H951.046V198.293C951.046 195.832 949.825 194.911 947.764 194.911C944.502 194.911 941.901 197.452 941.901 200.134V211H939.199ZM957.963 187.587H960.624V192.87H964.126V195.231H960.624V206.578C960.624 208.559 961.365 208.919 962.065 208.919C962.645 208.919 962.986 208.859 963.926 208.539V210.86C963.206 211.08 962.085 211.32 960.904 211.32C959.143 211.32 957.963 210.14 957.963 207.458V195.231H955.041V192.87H957.963V187.587ZM981.765 202.775H967.917C967.917 206.337 970.459 208.979 973.62 208.979C976.782 208.979 978.183 207.178 978.663 204.817H981.585C980.924 208.519 978.143 211.32 973.62 211.32C968.157 211.32 965.196 207.678 965.196 201.935C965.196 196.192 968.618 192.55 973.5 192.55C978.383 192.55 981.765 195.852 981.765 201.535V202.775ZM967.917 200.414H979.083C978.943 197.252 976.802 194.891 973.5 194.891C970.198 194.891 968.177 197.252 967.917 200.414ZM993.92 211L989.157 204.036L984.294 211H981.113L987.456 201.975L981.213 192.87H984.374L989.197 199.894L994.02 192.87H997.102L990.758 201.955L997.061 211H993.92ZM999.733 187.587H1002.39V192.87H1005.9V195.231H1002.39V206.578C1002.39 208.559 1003.13 208.919 1003.83 208.919C1004.42 208.919 1004.76 208.859 1005.7 208.539V210.86C1004.98 211.08 1003.85 211.32 1002.67 211.32C1000.91 211.32 999.733 210.14 999.733 207.458V195.231H996.811V192.87H999.733V187.587ZM1013.42 185.766H1016.12V211H1013.42V185.766ZM1021.82 197.933H1018.88C1019.14 194.171 1022.44 192.55 1025.92 192.55C1030.11 192.55 1032.99 194.071 1032.99 197.913V207.058C1032.99 208.659 1033.67 208.979 1034.25 208.979C1034.57 208.979 1034.79 208.939 1035.19 208.759V211C1034.41 211.24 1033.87 211.32 1033.17 211.32C1031.83 211.32 1030.63 210.38 1030.55 207.858C1028.36 210.38 1026.68 211.32 1023.68 211.32C1020.62 211.32 1018.36 209.359 1018.36 206.297C1018.36 203.716 1020.4 202.255 1024.2 201.135L1027.84 200.054C1029.83 199.474 1030.31 198.953 1030.31 197.613C1030.31 195.952 1028.94 194.891 1026.16 194.891C1023.38 194.891 1022.14 195.832 1021.82 197.933ZM1030.31 204.957V200.734C1029.53 201.535 1028.42 201.975 1026.94 202.435L1024.36 203.236C1022.22 203.896 1021.16 204.696 1021.16 206.257C1021.16 208.018 1022.52 209.019 1024.24 209.019C1026.44 209.019 1028.66 207.738 1030.31 204.957ZM1037.11 192.87L1042.26 207.658L1047.36 192.87H1050.18L1042.52 214.482C1041.48 217.424 1040.07 218.424 1038.41 218.424C1037.49 218.424 1036.79 218.224 1036.25 218.004V215.683C1036.59 215.823 1037.45 216.083 1038.09 216.083C1039.01 216.083 1039.61 215.382 1040.09 213.902L1040.98 211.22L1034.19 192.87H1037.11ZM1066.92 202.775H1053.08C1053.08 206.337 1055.62 208.979 1058.78 208.979C1061.94 208.979 1063.34 207.178 1063.82 204.817H1066.74C1066.08 208.519 1063.3 211.32 1058.78 211.32C1053.32 211.32 1050.35 207.678 1050.35 201.935C1050.35 196.192 1053.78 192.55 1058.66 192.55C1063.54 192.55 1066.92 195.852 1066.92 201.535V202.775ZM1053.08 200.414H1064.24C1064.1 197.252 1061.96 194.891 1058.66 194.891C1055.36 194.891 1053.34 197.252 1053.08 200.414ZM1068.98 211V192.87H1071.68L1071.58 195.892C1072.66 193.53 1074.18 192.55 1076.06 192.55C1076.62 192.55 1077.06 192.63 1077.44 192.77V195.511C1077.02 195.351 1076.48 195.211 1075.78 195.211C1073.48 195.211 1071.68 197.252 1071.68 200.074V211H1068.98ZM1086.4 187.587H1089.07V192.87H1092.57V195.231H1089.07V206.578C1089.07 208.559 1089.81 208.919 1090.51 208.919C1091.09 208.919 1091.43 208.859 1092.37 208.539V210.86C1091.65 211.08 1090.53 211.32 1089.35 211.32C1087.58 211.32 1086.4 210.14 1086.4 207.458V195.231H1083.48V192.87H1086.4V187.587ZM1094.4 211V185.766H1097.1V195.611C1098.98 193.43 1101.2 192.55 1103.48 192.55C1106.94 192.55 1108.95 194.591 1108.95 197.973V211H1106.24V198.293C1106.24 195.832 1105.02 194.911 1102.96 194.911C1099.7 194.911 1097.1 197.452 1097.1 200.134V211H1094.4ZM1114.22 197.933H1111.28C1111.54 194.171 1114.84 192.55 1118.32 192.55C1122.51 192.55 1125.39 194.071 1125.39 197.913V207.058C1125.39 208.659 1126.07 208.979 1126.65 208.979C1126.97 208.979 1127.19 208.939 1127.59 208.759V211C1126.81 211.24 1126.27 211.32 1125.57 211.32C1124.23 211.32 1123.03 210.38 1122.95 207.858C1120.76 210.38 1119.08 211.32 1116.08 211.32C1113.02 211.32 1110.76 209.359 1110.76 206.297C1110.76 203.716 1112.8 202.255 1116.6 201.135L1120.24 200.054C1122.23 199.474 1122.71 198.953 1122.71 197.613C1122.71 195.952 1121.35 194.891 1118.56 194.891C1115.78 194.891 1114.54 195.832 1114.22 197.933ZM1122.71 204.957V200.734C1121.93 201.535 1120.82 201.975 1119.34 202.435L1116.76 203.236C1114.62 203.896 1113.56 204.696 1113.56 206.257C1113.56 208.018 1114.92 209.019 1116.64 209.019C1118.84 209.019 1121.07 207.738 1122.71 204.957ZM1130.18 187.587H1132.84V192.87H1136.34V195.231H1132.84V206.578C1132.84 208.559 1133.58 208.919 1134.28 208.919C1134.86 208.919 1135.2 208.859 1136.14 208.539V210.86C1135.42 211.08 1134.3 211.32 1133.12 211.32C1131.36 211.32 1130.18 210.14 1130.18 207.458V195.231H1127.26V192.87H1130.18V187.587ZM1136.91 205.397H1139.79C1139.79 207.938 1141.29 208.979 1143.89 208.979C1146.72 208.979 1148.46 207.978 1148.46 206.257C1148.46 205.017 1147.7 204.256 1146.04 203.616L1141.77 201.975C1139.55 201.115 1137.59 199.854 1137.59 197.172C1137.59 194.391 1140.35 192.55 1143.89 192.55C1147.44 192.55 1150.14 193.79 1150.62 197.492H1147.7C1147.44 195.451 1146.18 194.871 1143.89 194.871C1141.53 194.871 1140.33 195.992 1140.33 197.172C1140.33 198.353 1140.93 199.073 1143.13 199.934L1146.8 201.375C1149.62 202.475 1151.12 203.676 1151.12 206.097C1151.12 209.419 1148.34 211.32 1143.89 211.32C1139.93 211.32 1137.13 209.399 1136.91 205.397ZM484.557 234.587H487.219V239.87H490.721V242.231H487.219V253.578C487.219 255.559 487.959 255.919 488.659 255.919C489.24 255.919 489.58 255.859 490.52 255.539V257.86C489.8 258.08 488.679 258.32 487.499 258.32C485.738 258.32 484.557 257.14 484.557 254.458V242.231H481.636V239.87H484.557V234.587ZM508.359 249.775H494.512C494.512 253.337 497.053 255.979 500.215 255.979C503.376 255.979 504.777 254.178 505.258 251.817H508.179C507.519 255.519 504.737 258.32 500.215 258.32C494.752 258.32 491.79 254.678 491.79 248.935C491.79 243.192 495.212 239.55 500.095 239.55C504.977 239.55 508.359 242.852 508.359 248.535V249.775ZM494.512 247.414H505.678C505.538 244.252 503.396 241.891 500.095 241.891C496.793 241.891 494.772 244.252 494.512 247.414ZM513.113 244.933H510.171C510.431 241.171 513.733 239.55 517.215 239.55C521.397 239.55 524.279 241.071 524.279 244.913V254.058C524.279 255.659 524.959 255.979 525.54 255.979C525.86 255.979 526.08 255.939 526.48 255.759V258C525.7 258.24 525.159 258.32 524.459 258.32C523.118 258.32 521.918 257.38 521.838 254.858C519.656 257.38 517.975 258.32 514.974 258.32C511.912 258.32 509.651 256.359 509.651 253.297C509.651 250.716 511.692 249.255 515.494 248.135L519.136 247.054C521.117 246.474 521.597 245.953 521.597 244.613C521.597 242.952 520.237 241.891 517.455 241.891C514.674 241.891 513.433 242.832 513.113 244.933ZM521.597 251.957V247.734C520.817 248.535 519.716 248.975 518.236 249.435L515.654 250.236C513.513 250.896 512.452 251.696 512.452 253.257C512.452 255.018 513.813 256.019 515.534 256.019C517.735 256.019 519.957 254.738 521.597 251.957ZM528.131 258V239.87H530.793V242.712C532.314 240.49 534.575 239.55 536.476 239.55C538.297 239.55 540.298 240.33 541.299 242.872C542.699 240.45 545.121 239.51 547.162 239.51C550.764 239.51 552.925 241.691 552.925 245.013V258H550.224V245.813C550.224 242.752 548.923 241.911 546.622 241.911C544.32 241.911 541.879 243.912 541.879 247.014V258H539.178V246.093C539.178 242.932 537.917 241.911 535.776 241.911C533.154 241.911 530.833 244.392 530.833 247.334V258H528.131ZM554.224 252.397H557.105C557.105 254.938 558.606 255.979 561.208 255.979C564.029 255.979 565.77 254.978 565.77 253.257C565.77 252.017 565.01 251.256 563.349 250.616L559.086 248.975C556.865 248.115 554.904 246.854 554.904 244.172C554.904 241.391 557.666 239.55 561.208 239.55C564.75 239.55 567.451 240.79 567.931 244.492H565.01C564.75 242.451 563.489 241.871 561.208 241.871C558.846 241.871 557.646 242.992 557.646 244.172C557.646 245.353 558.246 246.073 560.447 246.934L564.109 248.375C566.931 249.475 568.432 250.676 568.432 253.097C568.432 256.419 565.65 258.32 561.208 258.32C557.245 258.32 554.444 256.399 554.224 252.397ZM579.81 244.933H576.868C577.128 241.171 580.43 239.55 583.912 239.55C588.094 239.55 590.976 241.071 590.976 244.913V254.058C590.976 255.659 591.656 255.979 592.237 255.979C592.557 255.979 592.777 255.939 593.177 255.759V258C592.397 258.24 591.856 258.32 591.156 258.32C589.815 258.32 588.615 257.38 588.535 254.858C586.353 257.38 584.672 258.32 581.671 258.32C578.609 258.32 576.348 256.359 576.348 253.297C576.348 250.716 578.389 249.255 582.191 248.135L585.833 247.054C587.814 246.474 588.294 245.953 588.294 244.613C588.294 242.952 586.934 241.891 584.152 241.891C581.371 241.891 580.13 242.832 579.81 244.933ZM588.294 251.957V247.734C587.514 248.535 586.413 248.975 584.933 249.435L582.351 250.236C580.21 250.896 579.149 251.696 579.149 253.257C579.149 255.018 580.51 256.019 582.231 256.019C584.432 256.019 586.654 254.738 588.294 251.957ZM594.828 258V239.87H597.53V242.611C599.411 240.43 601.632 239.55 603.913 239.55C607.375 239.55 609.376 241.591 609.376 244.973V258H606.675V245.293C606.675 242.832 605.454 241.911 603.393 241.911C600.131 241.911 597.53 244.452 597.53 247.134V258H594.828ZM624.718 232.766H627.42V258H624.718V255.058C623.197 257.36 621.136 258.32 619.215 258.32C614.232 258.32 611.19 254.938 611.19 248.935C611.19 242.932 614.232 239.55 619.215 239.55C621.416 239.55 623.517 240.67 624.718 242.712V232.766ZM613.852 248.935C613.852 253.878 616.413 255.959 619.355 255.959C622.297 255.959 624.778 253.978 624.778 248.935C624.778 243.892 622.457 241.911 619.355 241.911C616.253 241.911 613.852 243.992 613.852 248.935ZM640.108 244.933H637.167C637.427 241.171 640.729 239.55 644.211 239.55C648.393 239.55 651.275 241.071 651.275 244.913V254.058C651.275 255.659 651.955 255.979 652.535 255.979C652.855 255.979 653.076 255.939 653.476 255.759V258C652.695 258.24 652.155 258.32 651.455 258.32C650.114 258.32 648.913 257.38 648.833 254.858C646.652 257.38 644.971 258.32 641.969 258.32C638.908 258.32 636.646 256.359 636.646 253.297C636.646 250.716 638.688 249.255 642.49 248.135L646.132 247.054C648.113 246.474 648.593 245.953 648.593 244.613C648.593 242.952 647.232 241.891 644.451 241.891C641.669 241.891 640.429 242.832 640.108 244.933ZM648.593 251.957V247.734C647.813 248.535 646.712 248.975 645.231 249.435L642.65 250.236C640.509 250.896 639.448 251.696 639.448 253.257C639.448 255.018 640.809 256.019 642.53 256.019C644.731 256.019 646.952 254.738 648.593 251.957ZM669.235 239.87V258H666.533V255.258C664.652 257.44 662.431 258.32 660.15 258.32C656.688 258.32 654.687 256.279 654.687 252.897V239.87H657.388V252.577C657.388 255.038 658.609 255.959 660.67 255.959C663.932 255.959 666.533 253.417 666.533 250.736V239.87H669.235ZM673.89 234.587H676.552V239.87H680.054V242.231H676.552V253.578C676.552 255.559 677.292 255.919 677.993 255.919C678.573 255.919 678.913 255.859 679.854 255.539V257.86C679.133 258.08 678.013 258.32 676.832 258.32C675.071 258.32 673.89 257.14 673.89 254.458V242.231H670.969V239.87H673.89V234.587ZM689.608 258.32C684.425 258.32 681.123 254.438 681.123 248.935C681.123 243.432 684.425 239.55 689.608 239.55C694.791 239.55 698.093 243.432 698.093 248.935C698.093 254.438 694.791 258.32 689.608 258.32ZM689.608 241.891C686.166 241.891 683.905 244.673 683.905 248.935C683.905 253.197 686.206 255.979 689.608 255.979C693.01 255.979 695.311 253.197 695.311 248.935C695.311 244.673 693.01 241.891 689.608 241.891ZM700.342 258V239.87H703.004V242.712C704.524 240.49 706.786 239.55 708.687 239.55C710.508 239.55 712.509 240.33 713.509 242.872C714.91 240.45 717.332 239.51 719.373 239.51C722.975 239.51 725.136 241.691 725.136 245.013V258H722.434V245.813C722.434 242.752 721.134 241.911 718.832 241.911C716.531 241.911 714.09 243.912 714.09 247.014V258H711.388V246.093C711.388 242.932 710.128 241.911 707.986 241.911C705.365 241.911 703.044 244.392 703.044 247.334V258H700.342ZM730.397 244.933H727.455C727.715 241.171 731.017 239.55 734.499 239.55C738.681 239.55 741.563 241.071 741.563 244.913V254.058C741.563 255.659 742.243 255.979 742.824 255.979C743.144 255.979 743.364 255.939 743.764 255.759V258C742.984 258.24 742.443 258.32 741.743 258.32C740.402 258.32 739.202 257.38 739.121 254.858C736.94 257.38 735.259 258.32 732.258 258.32C729.196 258.32 726.935 256.359 726.935 253.297C726.935 250.716 728.976 249.255 732.778 248.135L736.42 247.054C738.401 246.474 738.881 245.953 738.881 244.613C738.881 242.952 737.521 241.891 734.739 241.891C731.958 241.891 730.717 242.832 730.397 244.933ZM738.881 251.957V247.734C738.101 248.535 737 248.975 735.519 249.435L732.938 250.236C730.797 250.896 729.736 251.696 729.736 253.257C729.736 255.018 731.097 256.019 732.818 256.019C735.019 256.019 737.24 254.738 738.881 251.957ZM746.353 234.587H749.015V239.87H752.517V242.231H749.015V253.578C749.015 255.559 749.755 255.919 750.455 255.919C751.036 255.919 751.376 255.859 752.316 255.539V257.86C751.596 258.08 750.475 258.32 749.295 258.32C747.534 258.32 746.353 257.14 746.353 254.458V242.231H743.431V239.87H746.353V234.587ZM754.286 232.766H757.108V236.168H754.286V232.766ZM754.346 239.87H757.048V258H754.346V239.87ZM767.767 258.32C762.585 258.32 759.283 254.438 759.283 248.935C759.283 243.432 762.585 239.55 767.767 239.55C772.95 239.55 776.252 243.432 776.252 248.935C776.252 254.438 772.95 258.32 767.767 258.32ZM767.767 241.891C764.326 241.891 762.064 244.673 762.064 248.935C762.064 253.197 764.366 255.979 767.767 255.979C771.169 255.979 773.471 253.197 773.471 248.935C773.471 244.673 771.169 241.891 767.767 241.891ZM778.502 258V239.87H781.203V242.611C783.084 240.43 785.305 239.55 787.587 239.55C791.048 239.55 793.05 241.591 793.05 244.973V258H790.348V245.293C790.348 242.832 789.127 241.911 787.066 241.911C783.804 241.911 781.203 244.452 781.203 247.134V258H778.502ZM794.363 252.397H797.245C797.245 254.938 798.746 255.979 801.347 255.979C804.169 255.979 805.91 254.978 805.91 253.257C805.91 252.017 805.149 251.256 803.488 250.616L799.226 248.975C797.005 248.115 795.044 246.854 795.044 244.172C795.044 241.391 797.805 239.55 801.347 239.55C804.889 239.55 807.591 240.79 808.071 244.492H805.149C804.889 242.451 803.629 241.871 801.347 241.871C798.986 241.871 797.785 242.992 797.785 244.172C797.785 245.353 798.386 246.073 800.587 246.934L804.249 248.375C807.07 249.475 808.571 250.676 808.571 253.097C808.571 256.419 805.79 258.32 801.347 258.32C797.385 258.32 794.583 256.399 794.363 252.397ZM832.096 245.653H829.235C828.994 243.072 827.414 241.891 824.752 241.891C821.35 241.891 819.269 244.653 819.269 248.935C819.269 253.217 821.67 255.979 824.752 255.979C827.834 255.979 829.135 254.278 829.295 251.817H832.156C831.676 256.099 828.894 258.32 824.652 258.32C819.229 258.32 816.488 254.398 816.488 248.935C816.488 243.472 819.949 239.55 824.752 239.55C829.075 239.55 831.536 241.811 832.096 245.653ZM836.861 244.933H833.919C834.18 241.171 837.481 239.55 840.963 239.55C845.146 239.55 848.027 241.071 848.027 244.913V254.058C848.027 255.659 848.708 255.979 849.288 255.979C849.608 255.979 849.828 255.939 850.228 255.759V258C849.448 258.24 848.908 258.32 848.207 258.32C846.867 258.32 845.666 257.38 845.586 254.858C843.405 257.38 841.724 258.32 838.722 258.32C835.66 258.32 833.399 256.359 833.399 253.297C833.399 250.716 835.44 249.255 839.242 248.135L842.884 247.054C844.865 246.474 845.346 245.953 845.346 244.613C845.346 242.952 843.985 241.891 841.203 241.891C838.422 241.891 837.181 242.832 836.861 244.933ZM845.346 251.957V247.734C844.565 248.535 843.465 248.975 841.984 249.435L839.402 250.236C837.261 250.896 836.201 251.696 836.201 253.257C836.201 255.018 837.561 256.019 839.282 256.019C841.484 256.019 843.705 254.738 845.346 251.957ZM851.88 258V239.87H854.581V242.611C856.462 240.43 858.683 239.55 860.965 239.55C864.427 239.55 866.428 241.591 866.428 244.973V258H863.726V245.293C863.726 242.832 862.506 241.911 860.444 241.911C857.183 241.911 854.581 244.452 854.581 247.134V258H851.88ZM877.641 234.587H880.302V239.87H883.804V242.231H880.302V253.578C880.302 255.559 881.042 255.919 881.743 255.919C882.323 255.919 882.663 255.859 883.604 255.539V257.86C882.884 258.08 881.763 258.32 880.582 258.32C878.821 258.32 877.641 257.14 877.641 254.458V242.231H874.719V239.87H877.641V234.587ZM885.634 258V239.87H888.335L888.235 242.892C889.316 240.53 890.837 239.55 892.718 239.55C893.278 239.55 893.718 239.63 894.099 239.77V242.511C893.678 242.351 893.138 242.211 892.438 242.211C890.136 242.211 888.335 244.252 888.335 247.074V258H885.634ZM909.622 239.87V258H906.921V255.258C905.039 257.44 902.818 258.32 900.537 258.32C897.075 258.32 895.074 256.279 895.074 252.897V239.87H897.775V252.577C897.775 255.038 898.996 255.959 901.057 255.959C904.319 255.959 906.921 253.417 906.921 250.736V239.87H909.622ZM911.376 252.397H914.258C914.258 254.938 915.758 255.979 918.36 255.979C921.181 255.979 922.922 254.978 922.922 253.257C922.922 252.017 922.162 251.256 920.501 250.616L916.239 248.975C914.017 248.115 912.056 246.854 912.056 244.172C912.056 241.391 914.818 239.55 918.36 239.55C921.902 239.55 924.603 240.79 925.084 244.492H922.162C921.902 242.451 920.641 241.871 918.36 241.871C915.999 241.871 914.798 242.992 914.798 244.172C914.798 245.353 915.398 246.073 917.599 246.934L921.261 248.375C924.083 249.475 925.584 250.676 925.584 253.097C925.584 256.419 922.802 258.32 918.36 258.32C914.398 258.32 911.596 256.399 911.376 252.397ZM928.904 234.587H931.565V239.87H935.067V242.231H931.565V253.578C931.565 255.559 932.306 255.919 933.006 255.919C933.587 255.919 933.927 255.859 934.867 255.539V257.86C934.147 258.08 933.026 258.32 931.846 258.32C930.085 258.32 928.904 257.14 928.904 254.458V242.231H925.982V239.87H928.904V234.587ZM936.537 254.098H940.439V258H936.537V254.098Z" fill="white"/>
<path d="M598.943 316L596.663 303.328H599.351L600.431 313.144H600.503L602.111 303.328H605.063L606.647 313.144H606.719L607.799 303.328H610.487L608.207 316H605.303L603.671 305.944H603.503L601.847 316H598.943ZM613.334 316L611.054 303.328H613.742L614.822 313.144H614.894L616.502 303.328H619.454L621.038 313.144H621.11L622.19 303.328H624.878L622.598 316H619.694L618.062 305.944H617.894L616.238 316H613.334ZM627.724 316L625.444 303.328H628.132L629.212 313.144H629.284L630.892 303.328H633.844L635.428 313.144H635.5L636.58 303.328H639.268L636.988 316H634.084L632.452 305.944H632.284L630.628 316H627.724ZM644.923 316V312.352H648.571V316H644.923ZM656.17 317.272H659.074C659.026 318.424 659.386 318.664 661.042 318.664C663.514 318.664 664.042 318.112 664.042 315.568V314.272H663.922C663.37 315.736 662.794 316.048 660.682 316.048C656.626 316.048 655.738 314.896 655.738 309.592C655.738 304.264 656.626 303.088 660.706 303.088C662.818 303.088 663.418 303.4 663.994 304.84H664.114V303.328H666.634V315.808C666.634 320.176 665.65 321.136 661.114 321.136C657.178 321.136 656.29 320.44 656.17 317.272ZM661.186 313.528C663.418 313.528 663.898 312.808 663.898 309.568C663.898 306.328 663.418 305.608 661.186 305.608C659.05 305.608 658.57 306.328 658.57 309.568C658.57 312.808 659.05 313.528 661.186 313.528ZM678.12 312.568H680.784C680.328 315.568 679.44 316.24 675.888 316.24C671.184 316.24 670.152 315.04 670.152 309.64C670.152 304.264 671.112 303.088 675.48 303.088C680.112 303.088 681.096 304.48 680.952 310.84H672.84C672.984 313.24 673.536 313.768 675.84 313.768C677.376 313.768 677.784 313.552 678.12 312.568ZM672.864 308.68H678.312C678.192 306.04 677.688 305.464 675.6 305.464C673.464 305.464 672.96 306.04 672.864 308.68ZM684.279 305.608L684.975 303.328H687.495V300.736L690.255 299.584V303.328H694.383V305.608H690.207V311.896C690.207 313.312 690.591 313.624 692.391 313.624C693.135 313.624 693.615 313.576 694.983 313.36V315.928C692.919 316.192 692.271 316.24 691.479 316.24C688.191 316.24 687.471 315.472 687.471 311.968V305.608H684.279ZM699.341 317.272H702.245C702.197 318.424 702.557 318.664 704.213 318.664C706.685 318.664 707.213 318.112 707.213 315.568V314.272H707.093C706.541 315.736 705.965 316.048 703.853 316.048C699.797 316.048 698.909 314.896 698.909 309.592C698.909 304.264 699.797 303.088 703.877 303.088C705.989 303.088 706.589 303.4 707.165 304.84H707.285V303.328H709.805V315.808C709.805 320.176 708.821 321.136 704.285 321.136C700.349 321.136 699.461 320.44 699.341 317.272ZM704.357 313.528C706.589 313.528 707.069 312.808 707.069 309.568C707.069 306.328 706.589 305.608 704.357 305.608C702.221 305.608 701.741 306.328 701.741 309.568C701.741 312.808 702.221 313.528 704.357 313.528ZM721.196 316V314.488H721.076C720.524 315.904 719.9 316.216 717.644 316.216C714.236 316.216 713.492 315.544 713.492 312.52C713.492 308.968 714.524 308.2 719.276 308.2H720.98V307.6C720.98 305.728 720.548 305.32 718.628 305.32C716.948 305.32 716.588 305.632 716.612 307.024H713.924C713.828 303.808 714.668 303.088 718.556 303.088C722.684 303.088 723.596 303.88 723.596 307.552V316H721.196ZM720.956 310.216H718.796C716.66 310.216 716.204 310.552 716.204 312.136C716.204 313.48 716.54 313.768 718.076 313.768C720.38 313.768 720.908 313.12 720.956 310.216ZM727.931 316V313.576H732.059V300.952H728.171V298.528H734.723V313.576H738.563V316H727.931ZM749.977 316V314.488H749.857C749.305 315.904 748.681 316.216 746.425 316.216C743.017 316.216 742.273 315.544 742.273 312.52C742.273 308.968 743.305 308.2 748.057 308.2H749.761V307.6C749.761 305.728 749.329 305.32 747.409 305.32C745.729 305.32 745.369 305.632 745.393 307.024H742.705C742.609 303.808 743.449 303.088 747.337 303.088C751.465 303.088 752.377 303.88 752.377 307.552V316H749.977ZM749.737 310.216H747.577C745.441 310.216 744.985 310.552 744.985 312.136C744.985 313.48 745.321 313.768 746.857 313.768C749.161 313.768 749.689 313.12 749.737 310.216ZM756.064 316L760.24 309.616L756.304 303.328H759.568L761.872 307.672H761.944L764.272 303.328H767.584L763.528 309.616L767.68 316H764.392L761.92 311.704H761.8L759.352 316H756.064ZM773.167 321.28L775.351 315.16H774.511L770.431 303.328H773.311L776.287 312.472H776.383L779.311 303.328H782.191L775.999 321.28H773.167ZM788.829 316V312.352H792.477V316H788.829ZM803.46 300.784V297.376H807.012V300.784H803.46ZM800.34 316V313.6H804.276V305.728H800.58V303.328H806.964V313.6H810.684V316H800.34ZM819.434 316.24C814.658 316.24 813.602 315.04 813.602 309.64C813.602 304.264 814.658 303.088 819.434 303.088C824.186 303.088 825.242 304.264 825.242 309.64C825.242 315.04 824.186 316.24 819.434 316.24ZM819.434 313.672C821.906 313.672 822.458 312.952 822.458 309.64C822.458 306.376 821.906 305.656 819.434 305.656C816.938 305.656 816.386 306.376 816.386 309.64C816.386 312.952 816.938 313.672 819.434 313.672Z" fill="white"/>
</svg>
