<svg width="1423" height="379" viewBox="0 0 1423 379" fill="none" xmlns="http://www.w3.org/2000/svg">
<path d="M247.322 104.845C247.322 100.522 247.961 96.4854 249.239 92.7339C250.517 88.9825 252.297 85.7339 254.581 82.9883C256.891 80.2426 259.746 78.0951 263.144 76.5455C266.542 74.9688 270.266 74.1805 274.317 74.1805C280.95 74.1805 286.373 75.9475 290.586 79.4815C294.8 83.0155 297.559 87.732 298.864 93.631H291.769C290.899 89.0368 288.955 85.5572 285.938 83.1922C282.948 80.8271 279.047 79.6446 274.235 79.6446C268.173 79.6446 263.239 81.996 259.433 86.699C255.627 91.4019 253.724 97.4504 253.724 104.845C253.724 109.711 254.594 114.06 256.334 117.893C258.074 121.726 260.507 124.716 263.633 126.864C266.786 128.984 270.348 130.045 274.317 130.045C277.225 130.045 279.903 129.433 282.35 128.21C284.796 126.986 286.808 125.383 288.385 123.398C289.961 121.414 291.212 119.225 292.136 116.833C293.06 114.441 293.59 112.008 293.726 109.534H274.439V104.07H299.924V134H296.254L294.664 119.28C293.441 124.173 291.035 128.115 287.447 131.105C283.886 134.068 279.509 135.55 274.317 135.55C268.961 135.55 264.218 134.204 260.085 131.513C255.953 128.794 252.786 125.124 250.584 120.503C248.41 115.854 247.322 110.635 247.322 104.845ZM304.473 112.959C304.473 106.353 306.254 101.08 309.815 97.1378C313.376 93.1689 318.025 91.1844 323.761 91.1844C329.524 91.1844 334.159 93.0465 337.666 96.7708C341.173 100.468 342.926 105.565 342.926 112.062V114.916H310.794C310.794 119.021 312.071 122.447 314.627 125.192C317.182 127.938 320.308 129.311 324.005 129.311C330.503 129.311 334.404 126.089 335.708 119.647H342.477C341.662 124.132 339.637 127.775 336.402 130.575C333.194 133.348 329.062 134.734 324.005 134.734C317.753 134.734 312.928 132.804 309.53 128.944C306.159 125.056 304.473 119.728 304.473 112.959ZM310.794 109.452H336.687C336.524 105.701 335.26 102.629 332.895 100.237C330.557 97.8446 327.512 96.6485 323.761 96.6485C320.037 96.6485 317.019 97.8446 314.708 100.237C312.425 102.602 311.12 105.674 310.794 109.452ZM345.558 97.4232V91.9592H352.327V79.6854H358.485V91.9592H366.599V97.4232H358.485V123.724C358.485 127.367 359.599 129.188 361.828 129.188C362.916 129.188 364.357 128.889 366.151 128.291V133.674C363.922 134.381 361.584 134.734 359.137 134.734C357.017 134.734 355.345 134 354.122 132.532C352.925 131.064 352.327 128.821 352.327 125.804V97.4232H345.558ZM380.387 134L401.998 75.4446H410.154L431.643 134H425.078L418.554 115.569H393.558L386.993 134H380.387ZM395.474 110.105H416.596L406.035 80.297L395.474 110.105ZM435.05 134V75.4446H441.33V134H435.05ZM449.019 113.326V107.373H464.473V113.326H449.019ZM471.265 134V91.9592H477.545L477.3 98.932C479.638 93.7669 483.104 91.1844 487.698 91.1844C488.867 91.1844 489.941 91.3611 490.919 91.7145V98.0757C489.696 97.6135 488.405 97.3825 487.046 97.3825C484.354 97.3825 482.098 98.4427 480.277 100.563C478.455 102.683 477.545 105.375 477.545 108.637V134H471.265ZM492.125 112.959C492.125 106.353 493.905 101.08 497.467 97.1378C501.028 93.1689 505.676 91.1844 511.412 91.1844C517.175 91.1844 521.81 93.0465 525.317 96.7708C528.824 100.468 530.577 105.565 530.577 112.062V114.916H498.445C498.445 119.021 499.723 122.447 502.278 125.192C504.834 127.938 507.96 129.311 511.657 129.311C518.154 129.311 522.055 126.089 523.36 119.647H530.129C529.313 124.132 527.288 127.775 524.053 130.575C520.845 133.348 516.713 134.734 511.657 134.734C505.404 134.734 500.579 132.804 497.181 128.944C493.81 125.056 492.125 119.728 492.125 112.959ZM498.445 109.452H524.338C524.175 105.701 522.911 102.629 520.546 100.237C518.208 97.8446 515.164 96.6485 511.412 96.6485C507.688 96.6485 504.67 97.8446 502.36 100.237C500.076 102.602 498.771 105.674 498.445 109.452ZM534.392 123.072C534.392 120.19 535.507 117.825 537.736 115.977C539.965 114.101 543.377 112.483 547.971 111.124L556.412 108.596C558.695 107.944 560.218 107.237 560.979 106.476C561.74 105.687 562.121 104.505 562.121 102.928C562.121 100.971 561.305 99.4349 559.674 98.3203C558.043 97.2058 555.651 96.6485 552.497 96.6485C549.289 96.6485 546.897 97.2058 545.321 98.3203C543.771 99.4349 542.806 101.229 542.425 103.703H535.616C535.915 99.598 537.614 96.4854 540.713 94.365C543.812 92.2446 547.55 91.1844 551.926 91.1844C557.037 91.1844 561.047 92.1902 563.956 94.2019C566.864 96.2135 568.319 99.3533 568.319 103.621V124.866C568.319 127.829 569.297 129.311 571.255 129.311C571.907 129.311 572.641 129.134 573.457 128.781V134C571.907 134.489 570.344 134.734 568.767 134.734C567.082 134.734 565.668 134.082 564.526 132.777C563.385 131.472 562.759 129.447 562.651 126.701C560.068 129.664 557.622 131.744 555.311 132.94C553.027 134.136 550.173 134.734 546.748 134.734C543.159 134.734 540.196 133.674 537.858 131.553C535.548 129.406 534.392 126.579 534.392 123.072ZM540.876 122.99C540.876 124.975 541.555 126.538 542.915 127.68C544.274 128.821 545.987 129.392 548.053 129.392C550.689 129.392 553.231 128.604 555.678 127.027C558.124 125.45 560.272 123.099 562.121 119.973V110.186C561.278 111.056 560.245 111.79 559.022 112.388C557.798 112.959 556.222 113.544 554.291 114.142L548.338 115.977C545.728 116.792 543.825 117.73 542.629 118.79C541.46 119.85 540.876 121.25 540.876 122.99ZM580.778 129.025C577.489 125.219 575.844 119.864 575.844 112.959C575.844 106.054 577.489 100.699 580.778 96.8931C584.095 93.0873 588.662 91.1844 594.479 91.1844C597.062 91.1844 599.495 91.8232 601.778 93.1009C604.062 94.3786 605.883 96.1863 607.243 98.5242V75.4446H613.481V134H607.243V127.19C605.557 129.746 603.6 131.649 601.371 132.899C599.142 134.122 596.844 134.734 594.479 134.734C588.662 134.734 584.095 132.831 580.778 129.025ZM582.042 112.959C582.042 118.369 583.252 122.447 585.672 125.192C588.091 127.911 591.136 129.27 594.806 129.27C598.503 129.27 601.52 127.938 603.858 125.274C606.196 122.583 607.365 118.478 607.365 112.959C607.365 107.386 606.223 103.282 603.94 100.645C601.683 98.0077 598.639 96.6893 594.806 96.6893C590.973 96.6893 587.887 98.0349 585.549 100.726C583.211 103.417 582.042 107.495 582.042 112.959ZM616.032 91.9592H622.801L634.749 126.252L646.574 91.9592H653.098L635.32 142.074C633.172 148.163 630.005 151.208 625.819 151.208C624.025 151.208 622.353 150.882 620.803 150.229V144.847C622.298 145.472 623.726 145.784 625.085 145.784C626.145 145.784 627.042 145.377 627.776 144.561C628.537 143.746 629.19 142.468 629.733 140.728L631.772 134.53L616.032 91.9592ZM659.954 91.9592H666.315L675.367 126.293L684.828 91.9592H691.76L700.975 126.293L710.313 91.9592H716.634L704.604 134H697.999L688.253 98.932L678.548 134H672.065L659.954 91.9592ZM719.062 83.3553V75.4446H725.586V83.3553H719.062ZM719.185 134V91.9592H725.464V134H719.185ZM730.299 97.4232V91.9592H737.068V79.6854H743.225V91.9592H751.339V97.4232H743.225V123.724C743.225 127.367 744.339 129.188 746.569 129.188C747.656 129.188 749.097 128.889 750.891 128.291V133.674C748.662 134.381 746.324 134.734 743.877 134.734C741.757 134.734 740.085 134 738.862 132.532C737.666 131.064 737.068 128.821 737.068 125.804V97.4232H730.299ZM756.419 134V75.4446H762.698V98.3203C766.803 93.563 771.737 91.1844 777.5 91.1844C781.496 91.1844 784.609 92.299 786.838 94.5281C789.067 96.7572 790.182 99.8427 790.182 103.784V134H783.902V104.518C783.902 101.773 783.25 99.7883 781.945 98.565C780.667 97.3145 778.791 96.6893 776.318 96.6893C772.593 96.6893 769.386 97.9126 766.694 100.359C764.03 102.806 762.698 105.619 762.698 108.8V134H756.419Z" fill="white"/>
<path d="M833.746 106.219C840.774 106.219 846.491 100.485 846.491 93.4341C846.491 86.3836 840.774 80.6462 833.746 80.6462C826.718 80.6462 821.001 86.3812 821.001 93.4317C821.001 100.482 826.718 106.217 833.746 106.217" fill="white"/>
<path d="M865.641 112.642C858.613 112.642 852.896 118.377 852.896 125.428C852.896 132.478 858.613 138.213 865.641 138.213C872.67 138.213 878.387 132.478 878.387 125.428C878.387 118.377 872.67 112.642 865.641 112.642Z" fill="white"/>
<path d="M846.165 128.312C847.65 122.77 846.165 117.868 852.139 111.88C858.111 105.89 862.985 107.382 868.509 105.892C868.938 105.792 869.361 105.67 869.773 105.529C869.778 105.529 869.78 105.529 869.783 105.527C874.786 103.798 878.389 99.0305 878.389 93.4341C878.387 86.3812 872.67 80.6462 865.641 80.6462C860.062 80.6462 855.309 84.261 853.586 89.2797C853.586 89.2797 853.584 89.2892 853.582 89.294C853.441 89.7047 853.32 90.1273 853.222 90.5546C851.737 96.0938 853.184 101.029 847.258 106.974C841.331 112.919 836.4 111.479 830.878 112.969C830.45 113.069 830.031 113.189 829.621 113.33C829.617 113.33 829.612 113.332 829.609 113.334C824.604 115.063 821.001 119.831 821.001 125.427C821.001 132.478 826.718 138.213 833.746 138.213C839.325 138.213 844.078 134.598 845.801 129.579C845.801 129.579 845.801 129.579 845.801 129.577C845.889 129.322 845.97 129.061 846.041 128.799C846.084 128.639 846.125 128.474 846.163 128.312" fill="white"/>
<path d="M909.809 106.526C909.809 115.298 914.229 118.161 920.027 118.161C925.825 118.161 930.055 115.298 930.055 106.526C930.055 97.7539 925.825 94.8911 920.027 94.8911C914.229 94.8911 909.809 97.7507 909.809 106.526ZM919.223 145.817C905.485 145.817 897.786 140.857 897.786 129.606H911.096C910.906 135.279 914.422 136.377 920.03 136.377C925.638 136.377 929.917 134.85 929.917 128.127V124.264C927.398 126.743 923.691 128.411 918.888 128.411C905.958 128.411 897.782 121.259 897.782 106.526C897.782 91.7928 906.244 84.1631 917.604 84.1631C922.549 84.1631 926.825 86.1189 929.917 88.9784V84.9248H942.037V128.124C942.037 140.857 933.91 145.814 919.219 145.814" fill="white"/>
<path d="M963.335 118.639C967.614 118.639 971.607 116.873 973.364 112.632V105.768C971.272 108.008 968.657 109.676 964.474 110.535L962.097 111.012C958.863 111.68 957.534 112.632 957.534 114.921C957.534 117.209 959.816 118.639 963.335 118.639ZM973.364 123.79C970.037 127.224 966.234 128.892 960.482 128.892C951.402 128.892 944.987 123.696 944.987 114.921C944.987 107.769 948.883 104.286 961.289 102.188L968.087 101.046C972.27 100.329 973.364 99.4709 973.364 97.5635C973.364 95.656 972.604 94.3199 966.376 94.3199C961.717 94.3199 958.104 95.656 958.58 100.136H946.033C945.177 88.5008 955.968 84.1631 966.282 84.1631C978.402 84.1631 985.438 88.8816 985.438 100.087V128.124H973.364V123.787V123.79Z" fill="white"/>
<path d="M1001.27 68H989.148V128.127H1001.27V68Z" fill="white"/>
<path d="M1022.56 118.639C1026.84 118.639 1030.83 116.873 1032.59 112.632V105.768C1030.5 108.008 1027.88 109.676 1023.7 110.535L1021.32 111.012C1018.09 111.68 1016.76 112.632 1016.76 114.921C1016.76 117.209 1019.04 118.639 1022.56 118.639M1032.59 123.79C1029.27 127.224 1025.47 128.892 1019.71 128.892C1010.63 128.892 1004.22 123.696 1004.22 114.921C1004.22 107.769 1008.11 104.286 1020.52 102.188L1027.32 101.046C1031.5 100.329 1032.59 99.4709 1032.59 97.5635C1032.59 95.656 1031.84 94.3199 1025.61 94.3199C1020.95 94.3199 1017.33 95.656 1017.81 100.136H1005.26C1004.41 88.5008 1015.2 84.1631 1025.51 84.1631C1037.63 84.1631 1044.67 88.8816 1044.67 100.087V128.124H1032.59V123.787V123.79Z" fill="white"/>
<path d="M1066.97 116.492L1058.94 128.127H1044.39L1059.6 106.623L1044.63 84.928H1059.13L1067.11 96.705L1075.1 84.928H1089.41L1074.2 106.575L1089.31 128.127H1074.86L1066.97 116.492Z" fill="white"/>
<path d="M1133.22 84.928L1115.16 134.566C1112.93 140.669 1110.6 145.82 1103.7 145.82C1100.85 145.82 1097.72 145.152 1094.67 144.245V133.23L1096.86 133.898C1101.23 135.234 1103.18 134.185 1104.28 131.132L1105.46 127.795L1089.02 84.928H1102.28L1111.26 111.296L1120.58 84.928H1133.22Z" fill="white"/>
<path d="M281.508 185.766H301.699V188.127H292.954V211H290.253V188.127H281.508V185.766ZM313.417 192.87V211H310.716V208.258C308.835 210.44 306.613 211.32 304.332 211.32C300.87 211.32 298.869 209.279 298.869 205.897V192.87H301.57V205.577C301.57 208.038 302.791 208.959 304.852 208.959C308.114 208.959 310.716 206.417 310.716 203.736V192.87H313.417ZM316.432 211V192.87H319.133L319.033 195.892C320.114 193.53 321.635 192.55 323.516 192.55C324.076 192.55 324.516 192.63 324.896 192.77V195.511C324.476 195.351 323.936 195.211 323.235 195.211C320.934 195.211 319.133 197.252 319.133 200.074V211H316.432ZM326.312 211V192.87H329.014V195.611C330.895 193.43 333.116 192.55 335.397 192.55C338.859 192.55 340.86 194.591 340.86 197.973V211H338.159V198.293C338.159 195.832 336.938 194.911 334.877 194.911C331.615 194.911 329.014 197.452 329.014 200.134V211H326.312ZM349.171 205.397H352.053C352.053 207.938 353.554 208.979 356.155 208.979C358.977 208.979 360.718 207.978 360.718 206.257C360.718 205.017 359.957 204.256 358.296 203.616L354.034 201.975C351.813 201.115 349.852 199.854 349.852 197.172C349.852 194.391 352.613 192.55 356.155 192.55C359.697 192.55 362.399 193.79 362.879 197.492H359.957C359.697 195.451 358.436 194.871 356.155 194.871C353.794 194.871 352.593 195.992 352.593 197.172C352.593 198.353 353.194 199.073 355.395 199.934L359.057 201.375C361.878 202.475 363.379 203.676 363.379 206.097C363.379 209.419 360.598 211.32 356.155 211.32C352.193 211.32 349.391 209.399 349.171 205.397ZM364.998 185.766H367.82V189.168H364.998V185.766ZM365.058 192.87H367.76V211H365.058V192.87ZM370.755 185.766H373.457V211H370.755V185.766ZM384.176 211.32C378.993 211.32 375.691 207.438 375.691 201.935C375.691 196.432 378.993 192.55 384.176 192.55C389.359 192.55 392.661 196.432 392.661 201.935C392.661 207.438 389.359 211.32 384.176 211.32ZM384.176 194.891C380.734 194.891 378.473 197.673 378.473 201.935C378.473 206.197 380.774 208.979 384.176 208.979C387.578 208.979 389.879 206.197 389.879 201.935C389.879 197.673 387.578 194.891 384.176 194.891ZM410.719 202.775H396.871C396.871 206.337 399.413 208.979 402.575 208.979C405.736 208.979 407.137 207.178 407.617 204.817H410.539C409.879 208.519 407.097 211.32 402.575 211.32C397.112 211.32 394.15 207.678 394.15 201.935C394.15 196.192 397.572 192.55 402.455 192.55C407.337 192.55 410.719 195.852 410.719 201.535V202.775ZM396.871 200.414H408.038C407.898 197.252 405.756 194.891 402.455 194.891C399.153 194.891 397.132 197.252 396.871 200.414ZM425.538 185.766H428.24V211H425.538V208.058C424.017 210.36 421.956 211.32 420.035 211.32C415.052 211.32 412.011 207.938 412.011 201.935C412.011 195.932 415.052 192.55 420.035 192.55C422.236 192.55 424.338 193.67 425.538 195.712V185.766ZM414.672 201.935C414.672 206.878 417.234 208.959 420.175 208.959C423.117 208.959 425.598 206.978 425.598 201.935C425.598 196.892 423.277 194.911 420.175 194.911C417.073 194.911 414.672 196.992 414.672 201.935ZM450.994 185.766H453.696V211H450.994V208.058C449.473 210.36 447.412 211.32 445.491 211.32C440.508 211.32 437.467 207.938 437.467 201.935C437.467 195.932 440.508 192.55 445.491 192.55C447.692 192.55 449.793 193.67 450.994 195.712V185.766ZM440.128 201.935C440.128 206.878 442.69 208.959 445.631 208.959C448.573 208.959 451.054 206.978 451.054 201.935C451.054 196.892 448.733 194.911 445.631 194.911C442.529 194.911 440.128 196.992 440.128 201.935ZM459.387 197.933H456.445C456.705 194.171 460.007 192.55 463.489 192.55C467.672 192.55 470.553 194.071 470.553 197.913V207.058C470.553 208.659 471.234 208.979 471.814 208.979C472.134 208.979 472.354 208.939 472.754 208.759V211C471.974 211.24 471.434 211.32 470.733 211.32C469.393 211.32 468.192 210.38 468.112 207.858C465.931 210.38 464.25 211.32 461.248 211.32C458.186 211.32 455.925 209.359 455.925 206.297C455.925 203.716 457.966 202.255 461.768 201.135L465.41 200.054C467.391 199.474 467.872 198.953 467.872 197.613C467.872 195.952 466.511 194.891 463.729 194.891C460.948 194.891 459.707 195.832 459.387 197.933ZM467.872 204.957V200.734C467.091 201.535 465.991 201.975 464.51 202.435L461.928 203.236C459.787 203.896 458.727 204.696 458.727 206.257C458.727 208.018 460.087 209.019 461.808 209.019C464.01 209.019 466.231 207.738 467.872 204.957ZM475.343 187.587H478.005V192.87H481.507V195.231H478.005V206.578C478.005 208.559 478.745 208.919 479.446 208.919C480.026 208.919 480.366 208.859 481.307 208.539V210.86C480.586 211.08 479.466 211.32 478.285 211.32C476.524 211.32 475.343 210.14 475.343 207.458V195.231H472.422V192.87H475.343V187.587ZM486.038 197.933H483.097C483.357 194.171 486.659 192.55 490.14 192.55C494.323 192.55 497.204 194.071 497.204 197.913V207.058C497.204 208.659 497.885 208.979 498.465 208.979C498.785 208.979 499.005 208.939 499.406 208.759V211C498.625 211.24 498.085 211.32 497.385 211.32C496.044 211.32 494.843 210.38 494.763 207.858C492.582 210.38 490.901 211.32 487.899 211.32C484.838 211.32 482.576 209.359 482.576 206.297C482.576 203.716 484.617 202.255 488.42 201.135L492.062 200.054C494.043 199.474 494.523 198.953 494.523 197.613C494.523 195.952 493.162 194.891 490.381 194.891C487.599 194.891 486.358 195.832 486.038 197.933ZM494.523 204.957V200.734C493.742 201.535 492.642 201.975 491.161 202.435L488.58 203.236C486.438 203.896 485.378 204.696 485.378 206.257C485.378 208.018 486.739 209.019 488.46 209.019C490.661 209.019 492.882 207.738 494.523 204.957ZM510.264 197.933H507.322C507.582 194.171 510.884 192.55 514.366 192.55C518.548 192.55 521.43 194.071 521.43 197.913V207.058C521.43 208.659 522.11 208.979 522.691 208.979C523.011 208.979 523.231 208.939 523.631 208.759V211C522.851 211.24 522.31 211.32 521.61 211.32C520.269 211.32 519.069 210.38 518.989 207.858C516.807 210.38 515.126 211.32 512.125 211.32C509.063 211.32 506.802 209.359 506.802 206.297C506.802 203.716 508.843 202.255 512.645 201.135L516.287 200.054C518.268 199.474 518.748 198.953 518.748 197.613C518.748 195.952 517.388 194.891 514.606 194.891C511.825 194.891 510.584 195.832 510.264 197.933ZM518.748 204.957V200.734C517.968 201.535 516.867 201.975 515.387 202.435L512.805 203.236C510.664 203.896 509.603 204.696 509.603 206.257C509.603 208.018 510.964 209.019 512.685 209.019C514.886 209.019 517.107 207.738 518.748 204.957ZM525.282 211V192.87H527.984V195.611C529.865 193.43 532.086 192.55 534.367 192.55C537.829 192.55 539.83 194.591 539.83 197.973V211H537.129V198.293C537.129 195.832 535.908 194.911 533.847 194.911C530.585 194.911 527.984 197.452 527.984 200.134V211H525.282ZM555.172 185.766H557.873V211H555.172V208.058C553.651 210.36 551.59 211.32 549.669 211.32C544.686 211.32 541.644 207.938 541.644 201.935C541.644 195.932 544.686 192.55 549.669 192.55C551.87 192.55 553.971 193.67 555.172 195.712V185.766ZM544.306 201.935C544.306 206.878 546.867 208.959 549.809 208.959C552.751 208.959 555.232 206.978 555.232 201.935C555.232 196.892 552.911 194.911 549.809 194.911C546.707 194.911 544.306 196.992 544.306 201.935ZM570.562 204.656V211H567.861V185.766H570.562V201.335L579.147 192.87H582.449L575.585 199.694L582.789 211H579.667L573.724 201.515L570.562 204.656ZM583.647 211V192.87H586.349V195.611C588.23 193.43 590.451 192.55 592.732 192.55C596.194 192.55 598.195 194.591 598.195 197.973V211H595.494V198.293C595.494 195.832 594.273 194.911 592.212 194.911C588.95 194.911 586.349 197.452 586.349 200.134V211H583.647ZM608.494 211.32C603.311 211.32 600.009 207.438 600.009 201.935C600.009 196.432 603.311 192.55 608.494 192.55C613.677 192.55 616.979 196.432 616.979 201.935C616.979 207.438 613.677 211.32 608.494 211.32ZM608.494 194.891C605.052 194.891 602.791 197.673 602.791 201.935C602.791 206.197 605.092 208.979 608.494 208.979C611.896 208.979 614.197 206.197 614.197 201.935C614.197 197.673 611.896 194.891 608.494 194.891ZM633.376 211L629.174 195.892L624.991 211H622.19L616.967 192.87H619.709L623.611 207.678L627.693 192.87H630.675L634.657 207.678L638.679 192.87H641.401L636.218 211H633.376ZM642.152 185.766H644.853V211H642.152V185.766ZM663.657 202.775H649.809C649.809 206.337 652.351 208.979 655.513 208.979C658.674 208.979 660.075 207.178 660.555 204.817H663.477C662.817 208.519 660.035 211.32 655.513 211.32C650.05 211.32 647.088 207.678 647.088 201.935C647.088 196.192 650.51 192.55 655.392 192.55C660.275 192.55 663.657 195.852 663.657 201.535V202.775ZM649.809 200.414H660.976C660.835 197.252 658.694 194.891 655.392 194.891C652.091 194.891 650.07 197.252 649.809 200.414ZM678.476 185.766H681.178V211H678.476V208.058C676.955 210.36 674.894 211.32 672.973 211.32C667.99 211.32 664.949 207.938 664.949 201.935C664.949 195.932 667.99 192.55 672.973 192.55C675.174 192.55 677.275 193.67 678.476 195.712V185.766ZM667.61 201.935C667.61 206.878 670.172 208.959 673.113 208.959C676.055 208.959 678.536 206.978 678.536 201.935C678.536 196.892 676.215 194.911 673.113 194.911C670.011 194.911 667.61 196.992 667.61 201.935ZM699.636 192.87V210.48C699.636 216.163 697.035 218.424 691.572 218.424C687.169 218.424 684.147 216.043 683.607 212.661H686.849C687.169 214.842 688.57 216.303 691.712 216.303C694.853 216.303 696.935 215.082 696.935 211.64V208.178C695.654 210.099 693.713 211.32 691.432 211.32C686.449 211.32 683.407 207.938 683.407 201.935C683.407 195.932 686.449 192.55 691.432 192.55C693.353 192.55 695.414 193.51 696.935 195.812V192.87H699.636ZM696.995 201.935C696.995 196.892 694.513 194.911 691.572 194.911C688.63 194.911 686.069 196.992 686.069 201.935C686.069 206.878 688.47 208.959 691.572 208.959C694.673 208.959 696.995 206.978 696.995 201.935ZM718.435 202.775H704.587C704.587 206.337 707.128 208.979 710.29 208.979C713.452 208.979 714.853 207.178 715.333 204.817H718.255C717.594 208.519 714.813 211.32 710.29 211.32C704.827 211.32 701.866 207.678 701.866 201.935C701.866 196.192 705.287 192.55 710.17 192.55C715.053 192.55 718.435 195.852 718.435 201.535V202.775ZM704.587 200.414H715.753C715.613 197.252 713.472 194.891 710.17 194.891C706.868 194.891 704.847 197.252 704.587 200.414ZM727.424 185.766H730.246V189.168H727.424V185.766ZM727.484 192.87H730.186V211H727.484V192.87ZM733.181 211V192.87H735.882V195.611C737.763 193.43 739.985 192.55 742.266 192.55C745.728 192.55 747.729 194.591 747.729 197.973V211H745.028V198.293C745.028 195.832 743.807 194.911 741.746 194.911C738.484 194.911 735.882 197.452 735.882 200.134V211H733.181ZM751.944 187.587H754.606V192.87H758.108V195.231H754.606V206.578C754.606 208.559 755.346 208.919 756.047 208.919C756.627 208.919 756.967 208.859 757.908 208.539V210.86C757.187 211.08 756.067 211.32 754.886 211.32C753.125 211.32 751.944 210.14 751.944 207.458V195.231H749.023V192.87H751.944V187.587ZM767.662 211.32C762.479 211.32 759.177 207.438 759.177 201.935C759.177 196.432 762.479 192.55 767.662 192.55C772.845 192.55 776.147 196.432 776.147 201.935C776.147 207.438 772.845 211.32 767.662 211.32ZM767.662 194.891C764.22 194.891 761.959 197.673 761.959 201.935C761.959 206.197 764.26 208.979 767.662 208.979C771.064 208.979 773.365 206.197 773.365 201.935C773.365 197.673 771.064 194.891 767.662 194.891ZM788.095 197.933H785.153C785.414 194.171 788.715 192.55 792.197 192.55C796.38 192.55 799.261 194.071 799.261 197.913V207.058C799.261 208.659 799.942 208.979 800.522 208.979C800.842 208.979 801.062 208.939 801.463 208.759V211C800.682 211.24 800.142 211.32 799.441 211.32C798.101 211.32 796.9 210.38 796.82 207.858C794.639 210.38 792.958 211.32 789.956 211.32C786.894 211.32 784.633 209.359 784.633 206.297C784.633 203.716 786.674 202.255 790.476 201.135L794.118 200.054C796.1 199.474 796.58 198.953 796.58 197.613C796.58 195.952 795.219 194.891 792.438 194.891C789.656 194.891 788.415 195.832 788.095 197.933ZM796.58 204.957V200.734C795.799 201.535 794.699 201.975 793.218 202.435L790.637 203.236C788.495 203.896 787.435 204.696 787.435 206.257C787.435 208.018 788.795 209.019 790.516 209.019C792.718 209.019 794.939 207.738 796.58 204.957ZM808.358 205.397H811.24C811.24 207.938 812.741 208.979 815.342 208.979C818.164 208.979 819.905 207.978 819.905 206.257C819.905 205.017 819.144 204.256 817.483 203.616L813.221 201.975C811 201.115 809.039 199.854 809.039 197.172C809.039 194.391 811.8 192.55 815.342 192.55C818.884 192.55 821.586 193.79 822.066 197.492H819.144C818.884 195.451 817.624 194.871 815.342 194.871C812.981 194.871 811.78 195.992 811.78 197.172C811.78 198.353 812.381 199.073 814.582 199.934L818.244 201.375C821.065 202.475 822.566 203.676 822.566 206.097C822.566 209.419 819.785 211.32 815.342 211.32C811.38 211.32 808.578 209.399 808.358 205.397ZM824.246 211V185.766H826.947V195.611C828.828 193.43 831.049 192.55 833.331 192.55C836.792 192.55 838.794 194.591 838.794 197.973V211H836.092V198.293C836.092 195.832 834.871 194.911 832.81 194.911C829.548 194.911 826.947 197.452 826.947 200.134V211H824.246ZM844.069 197.933H841.128C841.388 194.171 844.69 192.55 848.172 192.55C852.354 192.55 855.236 194.071 855.236 197.913V207.058C855.236 208.659 855.916 208.979 856.496 208.979C856.817 208.979 857.037 208.939 857.437 208.759V211C856.656 211.24 856.116 211.32 855.416 211.32C854.075 211.32 852.874 210.38 852.794 207.858C850.613 210.38 848.932 211.32 845.93 211.32C842.869 211.32 840.608 209.359 840.608 206.297C840.608 203.716 842.649 202.255 846.451 201.135L850.093 200.054C852.074 199.474 852.554 198.953 852.554 197.613C852.554 195.952 851.193 194.891 848.412 194.891C845.63 194.891 844.39 195.832 844.069 197.933ZM852.554 204.957V200.734C851.774 201.535 850.673 201.975 849.192 202.435L846.611 203.236C844.47 203.896 843.409 204.696 843.409 206.257C843.409 208.018 844.77 209.019 846.491 209.019C848.692 209.019 850.913 207.738 852.554 204.957ZM859.088 211V192.87H861.79L861.69 195.892C862.77 193.53 864.291 192.55 866.172 192.55C866.732 192.55 867.173 192.63 867.553 192.77V195.511C867.133 195.351 866.592 195.211 865.892 195.211C863.591 195.211 861.79 197.252 861.79 200.074V211H859.088ZM884.285 202.775H870.437C870.437 206.337 872.979 208.979 876.14 208.979C879.302 208.979 880.703 207.178 881.183 204.817H884.105C883.445 208.519 880.663 211.32 876.14 211.32C870.677 211.32 867.716 207.678 867.716 201.935C867.716 196.192 871.138 192.55 876.02 192.55C880.903 192.55 884.285 195.852 884.285 201.535V202.775ZM870.437 200.414H881.604C881.463 197.252 879.322 194.891 876.02 194.891C872.719 194.891 870.697 197.252 870.437 200.414ZM899.104 185.766H901.806V211H899.104V208.058C897.583 210.36 895.522 211.32 893.601 211.32C888.618 211.32 885.577 207.938 885.577 201.935C885.577 195.932 888.618 192.55 893.601 192.55C895.802 192.55 897.904 193.67 899.104 195.712V185.766ZM888.238 201.935C888.238 206.878 890.8 208.959 893.741 208.959C896.683 208.959 899.164 206.978 899.164 201.935C899.164 196.892 896.843 194.911 893.741 194.911C890.639 194.911 888.238 196.992 888.238 201.935ZM926.641 198.653H923.78C923.54 196.072 921.959 194.891 919.297 194.891C915.895 194.891 913.814 197.653 913.814 201.935C913.814 206.217 916.215 208.979 919.297 208.979C922.379 208.979 923.68 207.278 923.84 204.817H926.701C926.221 209.099 923.439 211.32 919.197 211.32C913.774 211.32 911.033 207.398 911.033 201.935C911.033 196.472 914.495 192.55 919.297 192.55C923.62 192.55 926.081 194.811 926.641 198.653ZM936.429 211.32C931.246 211.32 927.944 207.438 927.944 201.935C927.944 196.432 931.246 192.55 936.429 192.55C941.612 192.55 944.914 196.432 944.914 201.935C944.914 207.438 941.612 211.32 936.429 211.32ZM936.429 194.891C932.987 194.891 930.726 197.673 930.726 201.935C930.726 206.197 933.027 208.979 936.429 208.979C939.831 208.979 942.132 206.197 942.132 201.935C942.132 197.673 939.831 194.891 936.429 194.891ZM947.163 211V192.87H949.865V195.611C951.746 193.43 953.967 192.55 956.248 192.55C959.71 192.55 961.711 194.591 961.711 197.973V211H959.01V198.293C959.01 195.832 957.789 194.911 955.728 194.911C952.466 194.911 949.865 197.452 949.865 200.134V211H947.163ZM965.926 187.587H968.588V192.87H972.09V195.231H968.588V206.578C968.588 208.559 969.328 208.919 970.029 208.919C970.609 208.919 970.949 208.859 971.89 208.539V210.86C971.169 211.08 970.049 211.32 968.868 211.32C967.107 211.32 965.926 210.14 965.926 207.458V195.231H963.005V192.87H965.926V187.587ZM989.729 202.775H975.881C975.881 206.337 978.422 208.979 981.584 208.979C984.746 208.979 986.147 207.178 986.627 204.817H989.548C988.888 208.519 986.106 211.32 981.584 211.32C976.121 211.32 973.159 207.678 973.159 201.935C973.159 196.192 976.581 192.55 981.464 192.55C986.347 192.55 989.729 195.852 989.729 201.535V202.775ZM975.881 200.414H987.047C986.907 197.252 984.766 194.891 981.464 194.891C978.162 194.891 976.141 197.252 975.881 200.414ZM1001.88 211L997.121 204.036L992.258 211H989.076L995.42 201.975L989.176 192.87H992.338L997.161 199.894L1001.98 192.87H1005.07L998.722 201.955L1005.03 211H1001.88ZM1007.7 187.587H1010.36V192.87H1013.86V195.231H1010.36V206.578C1010.36 208.559 1011.1 208.919 1011.8 208.919C1012.38 208.919 1012.72 208.859 1013.66 208.539V210.86C1012.94 211.08 1011.82 211.32 1010.64 211.32C1008.88 211.32 1007.7 210.14 1007.7 207.458V195.231H1004.77V192.87H1007.7V187.587ZM1021.39 185.766H1024.09V211H1021.39V185.766ZM1029.78 197.933H1026.84C1027.1 194.171 1030.4 192.55 1033.89 192.55C1038.07 192.55 1040.95 194.071 1040.95 197.913V207.058C1040.95 208.659 1041.63 208.979 1042.21 208.979C1042.53 208.979 1042.75 208.939 1043.15 208.759V211C1042.37 211.24 1041.83 211.32 1041.13 211.32C1039.79 211.32 1038.59 210.38 1038.51 207.858C1036.33 210.38 1034.65 211.32 1031.65 211.32C1028.58 211.32 1026.32 209.359 1026.32 206.297C1026.32 203.716 1028.36 202.255 1032.17 201.135L1035.81 200.054C1037.79 199.474 1038.27 198.953 1038.27 197.613C1038.27 195.952 1036.91 194.891 1034.13 194.891C1031.35 194.891 1030.1 195.832 1029.78 197.933ZM1038.27 204.957V200.734C1037.49 201.535 1036.39 201.975 1034.91 202.435L1032.33 203.236C1030.18 203.896 1029.12 204.696 1029.12 206.257C1029.12 208.018 1030.48 209.019 1032.21 209.019C1034.41 209.019 1036.63 207.738 1038.27 204.957ZM1045.08 192.87L1050.22 207.658L1055.32 192.87H1058.14L1050.48 214.482C1049.44 217.424 1048.04 218.424 1046.38 218.424C1045.46 218.424 1044.76 218.224 1044.22 218.004V215.683C1044.56 215.823 1045.42 216.083 1046.06 216.083C1046.98 216.083 1047.58 215.382 1048.06 213.902L1048.94 211.22L1042.16 192.87H1045.08ZM1074.89 202.775H1061.04C1061.04 206.337 1063.58 208.979 1066.74 208.979C1069.9 208.979 1071.3 207.178 1071.78 204.817H1074.71C1074.05 208.519 1071.26 211.32 1066.74 211.32C1061.28 211.32 1058.32 207.678 1058.32 201.935C1058.32 196.192 1061.74 192.55 1066.62 192.55C1071.5 192.55 1074.89 195.852 1074.89 201.535V202.775ZM1061.04 200.414H1072.21C1072.07 197.252 1069.92 194.891 1066.62 194.891C1063.32 194.891 1061.3 197.252 1061.04 200.414ZM1076.94 211V192.87H1079.64L1079.54 195.892C1080.62 193.53 1082.14 192.55 1084.02 192.55C1084.58 192.55 1085.02 192.63 1085.4 192.77V195.511C1084.98 195.351 1084.44 195.211 1083.74 195.211C1081.44 195.211 1079.64 197.252 1079.64 200.074V211H1076.94ZM1094.37 187.587H1097.03V192.87H1100.53V195.231H1097.03V206.578C1097.03 208.559 1097.77 208.919 1098.47 208.919C1099.05 208.919 1099.39 208.859 1100.33 208.539V210.86C1099.61 211.08 1098.49 211.32 1097.31 211.32C1095.55 211.32 1094.37 210.14 1094.37 207.458V195.231H1091.45V192.87H1094.37V187.587ZM1102.36 211V185.766H1105.06V195.611C1106.94 193.43 1109.16 192.55 1111.45 192.55C1114.91 192.55 1116.91 194.591 1116.91 197.973V211H1114.21V198.293C1114.21 195.832 1112.99 194.911 1110.93 194.911C1107.66 194.911 1105.06 197.452 1105.06 200.134V211H1102.36ZM1122.18 197.933H1119.24C1119.5 194.171 1122.81 192.55 1126.29 192.55C1130.47 192.55 1133.35 194.071 1133.35 197.913V207.058C1133.35 208.659 1134.03 208.979 1134.61 208.979C1134.93 208.979 1135.15 208.939 1135.55 208.759V211C1134.77 211.24 1134.23 211.32 1133.53 211.32C1132.19 211.32 1130.99 210.38 1130.91 207.858C1128.73 210.38 1127.05 211.32 1124.05 211.32C1120.98 211.32 1118.72 209.359 1118.72 206.297C1118.72 203.716 1120.76 202.255 1124.57 201.135L1128.21 200.054C1130.19 199.474 1130.67 198.953 1130.67 197.613C1130.67 195.952 1129.31 194.891 1126.53 194.891C1123.75 194.891 1122.51 195.832 1122.18 197.933ZM1130.67 204.957V200.734C1129.89 201.535 1128.79 201.975 1127.31 202.435L1124.73 203.236C1122.59 203.896 1121.52 204.696 1121.52 206.257C1121.52 208.018 1122.89 209.019 1124.61 209.019C1126.81 209.019 1129.03 207.738 1130.67 204.957ZM1138.14 187.587H1140.8V192.87H1144.3V195.231H1140.8V206.578C1140.8 208.559 1141.54 208.919 1142.24 208.919C1142.82 208.919 1143.16 208.859 1144.1 208.539V210.86C1143.38 211.08 1142.26 211.32 1141.08 211.32C1139.32 211.32 1138.14 210.14 1138.14 207.458V195.231H1135.22V192.87H1138.14V187.587ZM484.557 234.587H487.219V239.87H490.721V242.231H487.219V253.578C487.219 255.559 487.959 255.919 488.659 255.919C489.24 255.919 489.58 255.859 490.52 255.539V257.86C489.8 258.08 488.679 258.32 487.499 258.32C485.738 258.32 484.557 257.14 484.557 254.458V242.231H481.636V239.87H484.557V234.587ZM508.359 249.775H494.512C494.512 253.337 497.053 255.979 500.215 255.979C503.376 255.979 504.777 254.178 505.258 251.817H508.179C507.519 255.519 504.737 258.32 500.215 258.32C494.752 258.32 491.79 254.678 491.79 248.935C491.79 243.192 495.212 239.55 500.095 239.55C504.977 239.55 508.359 242.852 508.359 248.535V249.775ZM494.512 247.414H505.678C505.538 244.252 503.396 241.891 500.095 241.891C496.793 241.891 494.772 244.252 494.512 247.414ZM513.113 244.933H510.171C510.431 241.171 513.733 239.55 517.215 239.55C521.397 239.55 524.279 241.071 524.279 244.913V254.058C524.279 255.659 524.959 255.979 525.54 255.979C525.86 255.979 526.08 255.939 526.48 255.759V258C525.7 258.24 525.159 258.32 524.459 258.32C523.118 258.32 521.918 257.38 521.838 254.858C519.656 257.38 517.975 258.32 514.974 258.32C511.912 258.32 509.651 256.359 509.651 253.297C509.651 250.716 511.692 249.255 515.494 248.135L519.136 247.054C521.117 246.474 521.597 245.953 521.597 244.613C521.597 242.952 520.237 241.891 517.455 241.891C514.674 241.891 513.433 242.832 513.113 244.933ZM521.597 251.957V247.734C520.817 248.535 519.716 248.975 518.236 249.435L515.654 250.236C513.513 250.896 512.452 251.696 512.452 253.257C512.452 255.018 513.813 256.019 515.534 256.019C517.735 256.019 519.957 254.738 521.597 251.957ZM528.131 258V239.87H530.793V242.712C532.314 240.49 534.575 239.55 536.476 239.55C538.297 239.55 540.298 240.33 541.299 242.872C542.699 240.45 545.121 239.51 547.162 239.51C550.764 239.51 552.925 241.691 552.925 245.013V258H550.224V245.813C550.224 242.752 548.923 241.911 546.622 241.911C544.32 241.911 541.879 243.912 541.879 247.014V258H539.178V246.093C539.178 242.932 537.917 241.911 535.776 241.911C533.154 241.911 530.833 244.392 530.833 247.334V258H528.131ZM554.224 252.397H557.105C557.105 254.938 558.606 255.979 561.208 255.979C564.029 255.979 565.77 254.978 565.77 253.257C565.77 252.017 565.01 251.256 563.349 250.616L559.086 248.975C556.865 248.115 554.904 246.854 554.904 244.172C554.904 241.391 557.666 239.55 561.208 239.55C564.75 239.55 567.451 240.79 567.931 244.492H565.01C564.75 242.451 563.489 241.871 561.208 241.871C558.846 241.871 557.646 242.992 557.646 244.172C557.646 245.353 558.246 246.073 560.447 246.934L564.109 248.375C566.931 249.475 568.432 250.676 568.432 253.097C568.432 256.419 565.65 258.32 561.208 258.32C557.245 258.32 554.444 256.399 554.224 252.397ZM579.81 244.933H576.868C577.128 241.171 580.43 239.55 583.912 239.55C588.094 239.55 590.976 241.071 590.976 244.913V254.058C590.976 255.659 591.656 255.979 592.237 255.979C592.557 255.979 592.777 255.939 593.177 255.759V258C592.397 258.24 591.856 258.32 591.156 258.32C589.815 258.32 588.615 257.38 588.535 254.858C586.353 257.38 584.672 258.32 581.671 258.32C578.609 258.32 576.348 256.359 576.348 253.297C576.348 250.716 578.389 249.255 582.191 248.135L585.833 247.054C587.814 246.474 588.294 245.953 588.294 244.613C588.294 242.952 586.934 241.891 584.152 241.891C581.371 241.891 580.13 242.832 579.81 244.933ZM588.294 251.957V247.734C587.514 248.535 586.413 248.975 584.933 249.435L582.351 250.236C580.21 250.896 579.149 251.696 579.149 253.257C579.149 255.018 580.51 256.019 582.231 256.019C584.432 256.019 586.654 254.738 588.294 251.957ZM594.828 258V239.87H597.53V242.611C599.411 240.43 601.632 239.55 603.913 239.55C607.375 239.55 609.376 241.591 609.376 244.973V258H606.675V245.293C606.675 242.832 605.454 241.911 603.393 241.911C600.131 241.911 597.53 244.452 597.53 247.134V258H594.828ZM624.718 232.766H627.42V258H624.718V255.058C623.197 257.36 621.136 258.32 619.215 258.32C614.232 258.32 611.19 254.938 611.19 248.935C611.19 242.932 614.232 239.55 619.215 239.55C621.416 239.55 623.517 240.67 624.718 242.712V232.766ZM613.852 248.935C613.852 253.878 616.413 255.959 619.355 255.959C622.297 255.959 624.778 253.978 624.778 248.935C624.778 243.892 622.457 241.911 619.355 241.911C616.253 241.911 613.852 243.992 613.852 248.935ZM640.108 244.933H637.167C637.427 241.171 640.729 239.55 644.211 239.55C648.393 239.55 651.275 241.071 651.275 244.913V254.058C651.275 255.659 651.955 255.979 652.535 255.979C652.855 255.979 653.076 255.939 653.476 255.759V258C652.695 258.24 652.155 258.32 651.455 258.32C650.114 258.32 648.913 257.38 648.833 254.858C646.652 257.38 644.971 258.32 641.969 258.32C638.908 258.32 636.646 256.359 636.646 253.297C636.646 250.716 638.688 249.255 642.49 248.135L646.132 247.054C648.113 246.474 648.593 245.953 648.593 244.613C648.593 242.952 647.232 241.891 644.451 241.891C641.669 241.891 640.429 242.832 640.108 244.933ZM648.593 251.957V247.734C647.813 248.535 646.712 248.975 645.231 249.435L642.65 250.236C640.509 250.896 639.448 251.696 639.448 253.257C639.448 255.018 640.809 256.019 642.53 256.019C644.731 256.019 646.952 254.738 648.593 251.957ZM669.235 239.87V258H666.533V255.258C664.652 257.44 662.431 258.32 660.15 258.32C656.688 258.32 654.687 256.279 654.687 252.897V239.87H657.388V252.577C657.388 255.038 658.609 255.959 660.67 255.959C663.932 255.959 666.533 253.417 666.533 250.736V239.87H669.235ZM673.89 234.587H676.552V239.87H680.054V242.231H676.552V253.578C676.552 255.559 677.292 255.919 677.993 255.919C678.573 255.919 678.913 255.859 679.854 255.539V257.86C679.133 258.08 678.013 258.32 676.832 258.32C675.071 258.32 673.89 257.14 673.89 254.458V242.231H670.969V239.87H673.89V234.587ZM689.608 258.32C684.425 258.32 681.123 254.438 681.123 248.935C681.123 243.432 684.425 239.55 689.608 239.55C694.791 239.55 698.093 243.432 698.093 248.935C698.093 254.438 694.791 258.32 689.608 258.32ZM689.608 241.891C686.166 241.891 683.905 244.673 683.905 248.935C683.905 253.197 686.206 255.979 689.608 255.979C693.01 255.979 695.311 253.197 695.311 248.935C695.311 244.673 693.01 241.891 689.608 241.891ZM700.342 258V239.87H703.004V242.712C704.524 240.49 706.786 239.55 708.687 239.55C710.508 239.55 712.509 240.33 713.509 242.872C714.91 240.45 717.332 239.51 719.373 239.51C722.975 239.51 725.136 241.691 725.136 245.013V258H722.434V245.813C722.434 242.752 721.134 241.911 718.832 241.911C716.531 241.911 714.09 243.912 714.09 247.014V258H711.388V246.093C711.388 242.932 710.128 241.911 707.986 241.911C705.365 241.911 703.044 244.392 703.044 247.334V258H700.342ZM730.397 244.933H727.455C727.715 241.171 731.017 239.55 734.499 239.55C738.681 239.55 741.563 241.071 741.563 244.913V254.058C741.563 255.659 742.243 255.979 742.824 255.979C743.144 255.979 743.364 255.939 743.764 255.759V258C742.984 258.24 742.443 258.32 741.743 258.32C740.402 258.32 739.202 257.38 739.121 254.858C736.94 257.38 735.259 258.32 732.258 258.32C729.196 258.32 726.935 256.359 726.935 253.297C726.935 250.716 728.976 249.255 732.778 248.135L736.42 247.054C738.401 246.474 738.881 245.953 738.881 244.613C738.881 242.952 737.521 241.891 734.739 241.891C731.958 241.891 730.717 242.832 730.397 244.933ZM738.881 251.957V247.734C738.101 248.535 737 248.975 735.519 249.435L732.938 250.236C730.797 250.896 729.736 251.696 729.736 253.257C729.736 255.018 731.097 256.019 732.818 256.019C735.019 256.019 737.24 254.738 738.881 251.957ZM746.353 234.587H749.015V239.87H752.517V242.231H749.015V253.578C749.015 255.559 749.755 255.919 750.455 255.919C751.036 255.919 751.376 255.859 752.316 255.539V257.86C751.596 258.08 750.475 258.32 749.295 258.32C747.534 258.32 746.353 257.14 746.353 254.458V242.231H743.431V239.87H746.353V234.587ZM754.286 232.766H757.108V236.168H754.286V232.766ZM754.346 239.87H757.048V258H754.346V239.87ZM767.767 258.32C762.585 258.32 759.283 254.438 759.283 248.935C759.283 243.432 762.585 239.55 767.767 239.55C772.95 239.55 776.252 243.432 776.252 248.935C776.252 254.438 772.95 258.32 767.767 258.32ZM767.767 241.891C764.326 241.891 762.064 244.673 762.064 248.935C762.064 253.197 764.366 255.979 767.767 255.979C771.169 255.979 773.471 253.197 773.471 248.935C773.471 244.673 771.169 241.891 767.767 241.891ZM778.502 258V239.87H781.203V242.611C783.084 240.43 785.305 239.55 787.587 239.55C791.048 239.55 793.05 241.591 793.05 244.973V258H790.348V245.293C790.348 242.832 789.127 241.911 787.066 241.911C783.804 241.911 781.203 244.452 781.203 247.134V258H778.502ZM794.363 252.397H797.245C797.245 254.938 798.746 255.979 801.347 255.979C804.169 255.979 805.91 254.978 805.91 253.257C805.91 252.017 805.149 251.256 803.488 250.616L799.226 248.975C797.005 248.115 795.044 246.854 795.044 244.172C795.044 241.391 797.805 239.55 801.347 239.55C804.889 239.55 807.591 240.79 808.071 244.492H805.149C804.889 242.451 803.629 241.871 801.347 241.871C798.986 241.871 797.785 242.992 797.785 244.172C797.785 245.353 798.386 246.073 800.587 246.934L804.249 248.375C807.07 249.475 808.571 250.676 808.571 253.097C808.571 256.419 805.79 258.32 801.347 258.32C797.385 258.32 794.583 256.399 794.363 252.397ZM832.096 245.653H829.235C828.994 243.072 827.414 241.891 824.752 241.891C821.35 241.891 819.269 244.653 819.269 248.935C819.269 253.217 821.67 255.979 824.752 255.979C827.834 255.979 829.135 254.278 829.295 251.817H832.156C831.676 256.099 828.894 258.32 824.652 258.32C819.229 258.32 816.488 254.398 816.488 248.935C816.488 243.472 819.949 239.55 824.752 239.55C829.075 239.55 831.536 241.811 832.096 245.653ZM836.861 244.933H833.919C834.18 241.171 837.481 239.55 840.963 239.55C845.146 239.55 848.027 241.071 848.027 244.913V254.058C848.027 255.659 848.708 255.979 849.288 255.979C849.608 255.979 849.828 255.939 850.228 255.759V258C849.448 258.24 848.908 258.32 848.207 258.32C846.867 258.32 845.666 257.38 845.586 254.858C843.405 257.38 841.724 258.32 838.722 258.32C835.66 258.32 833.399 256.359 833.399 253.297C833.399 250.716 835.44 249.255 839.242 248.135L842.884 247.054C844.865 246.474 845.346 245.953 845.346 244.613C845.346 242.952 843.985 241.891 841.203 241.891C838.422 241.891 837.181 242.832 836.861 244.933ZM845.346 251.957V247.734C844.565 248.535 843.465 248.975 841.984 249.435L839.402 250.236C837.261 250.896 836.201 251.696 836.201 253.257C836.201 255.018 837.561 256.019 839.282 256.019C841.484 256.019 843.705 254.738 845.346 251.957ZM851.88 258V239.87H854.581V242.611C856.462 240.43 858.683 239.55 860.965 239.55C864.427 239.55 866.428 241.591 866.428 244.973V258H863.726V245.293C863.726 242.832 862.506 241.911 860.444 241.911C857.183 241.911 854.581 244.452 854.581 247.134V258H851.88ZM877.641 234.587H880.302V239.87H883.804V242.231H880.302V253.578C880.302 255.559 881.042 255.919 881.743 255.919C882.323 255.919 882.663 255.859 883.604 255.539V257.86C882.884 258.08 881.763 258.32 880.582 258.32C878.821 258.32 877.641 257.14 877.641 254.458V242.231H874.719V239.87H877.641V234.587ZM885.634 258V239.87H888.335L888.235 242.892C889.316 240.53 890.837 239.55 892.718 239.55C893.278 239.55 893.718 239.63 894.099 239.77V242.511C893.678 242.351 893.138 242.211 892.438 242.211C890.136 242.211 888.335 244.252 888.335 247.074V258H885.634ZM909.622 239.87V258H906.921V255.258C905.039 257.44 902.818 258.32 900.537 258.32C897.075 258.32 895.074 256.279 895.074 252.897V239.87H897.775V252.577C897.775 255.038 898.996 255.959 901.057 255.959C904.319 255.959 906.921 253.417 906.921 250.736V239.87H909.622ZM911.376 252.397H914.258C914.258 254.938 915.758 255.979 918.36 255.979C921.181 255.979 922.922 254.978 922.922 253.257C922.922 252.017 922.162 251.256 920.501 250.616L916.239 248.975C914.017 248.115 912.056 246.854 912.056 244.172C912.056 241.391 914.818 239.55 918.36 239.55C921.902 239.55 924.603 240.79 925.084 244.492H922.162C921.902 242.451 920.641 241.871 918.36 241.871C915.999 241.871 914.798 242.992 914.798 244.172C914.798 245.353 915.398 246.073 917.599 246.934L921.261 248.375C924.083 249.475 925.584 250.676 925.584 253.097C925.584 256.419 922.802 258.32 918.36 258.32C914.398 258.32 911.596 256.399 911.376 252.397ZM928.904 234.587H931.565V239.87H935.067V242.231H931.565V253.578C931.565 255.559 932.306 255.919 933.006 255.919C933.587 255.919 933.927 255.859 934.867 255.539V257.86C934.147 258.08 933.026 258.32 931.846 258.32C930.085 258.32 928.904 257.14 928.904 254.458V242.231H925.982V239.87H928.904V234.587ZM936.537 254.098H940.439V258H936.537V254.098Z" fill="white"/>
<path d="M598.943 316L596.663 303.328H599.351L600.431 313.144H600.503L602.111 303.328H605.063L606.647 313.144H606.719L607.799 303.328H610.487L608.207 316H605.303L603.671 305.944H603.503L601.847 316H598.943ZM613.334 316L611.054 303.328H613.742L614.822 313.144H614.894L616.502 303.328H619.454L621.038 313.144H621.11L622.19 303.328H624.878L622.598 316H619.694L618.062 305.944H617.894L616.238 316H613.334ZM627.724 316L625.444 303.328H628.132L629.212 313.144H629.284L630.892 303.328H633.844L635.428 313.144H635.5L636.58 303.328H639.268L636.988 316H634.084L632.452 305.944H632.284L630.628 316H627.724ZM644.923 316V312.352H648.571V316H644.923ZM656.17 317.272H659.074C659.026 318.424 659.386 318.664 661.042 318.664C663.514 318.664 664.042 318.112 664.042 315.568V314.272H663.922C663.37 315.736 662.794 316.048 660.682 316.048C656.626 316.048 655.738 314.896 655.738 309.592C655.738 304.264 656.626 303.088 660.706 303.088C662.818 303.088 663.418 303.4 663.994 304.84H664.114V303.328H666.634V315.808C666.634 320.176 665.65 321.136 661.114 321.136C657.178 321.136 656.29 320.44 656.17 317.272ZM661.186 313.528C663.418 313.528 663.898 312.808 663.898 309.568C663.898 306.328 663.418 305.608 661.186 305.608C659.05 305.608 658.57 306.328 658.57 309.568C658.57 312.808 659.05 313.528 661.186 313.528ZM678.12 312.568H680.784C680.328 315.568 679.44 316.24 675.888 316.24C671.184 316.24 670.152 315.04 670.152 309.64C670.152 304.264 671.112 303.088 675.48 303.088C680.112 303.088 681.096 304.48 680.952 310.84H672.84C672.984 313.24 673.536 313.768 675.84 313.768C677.376 313.768 677.784 313.552 678.12 312.568ZM672.864 308.68H678.312C678.192 306.04 677.688 305.464 675.6 305.464C673.464 305.464 672.96 306.04 672.864 308.68ZM684.279 305.608L684.975 303.328H687.495V300.736L690.255 299.584V303.328H694.383V305.608H690.207V311.896C690.207 313.312 690.591 313.624 692.391 313.624C693.135 313.624 693.615 313.576 694.983 313.36V315.928C692.919 316.192 692.271 316.24 691.479 316.24C688.191 316.24 687.471 315.472 687.471 311.968V305.608H684.279ZM699.341 317.272H702.245C702.197 318.424 702.557 318.664 704.213 318.664C706.685 318.664 707.213 318.112 707.213 315.568V314.272H707.093C706.541 315.736 705.965 316.048 703.853 316.048C699.797 316.048 698.909 314.896 698.909 309.592C698.909 304.264 699.797 303.088 703.877 303.088C705.989 303.088 706.589 303.4 707.165 304.84H707.285V303.328H709.805V315.808C709.805 320.176 708.821 321.136 704.285 321.136C700.349 321.136 699.461 320.44 699.341 317.272ZM704.357 313.528C706.589 313.528 707.069 312.808 707.069 309.568C707.069 306.328 706.589 305.608 704.357 305.608C702.221 305.608 701.741 306.328 701.741 309.568C701.741 312.808 702.221 313.528 704.357 313.528ZM721.196 316V314.488H721.076C720.524 315.904 719.9 316.216 717.644 316.216C714.236 316.216 713.492 315.544 713.492 312.52C713.492 308.968 714.524 308.2 719.276 308.2H720.98V307.6C720.98 305.728 720.548 305.32 718.628 305.32C716.948 305.32 716.588 305.632 716.612 307.024H713.924C713.828 303.808 714.668 303.088 718.556 303.088C722.684 303.088 723.596 303.88 723.596 307.552V316H721.196ZM720.956 310.216H718.796C716.66 310.216 716.204 310.552 716.204 312.136C716.204 313.48 716.54 313.768 718.076 313.768C720.38 313.768 720.908 313.12 720.956 310.216ZM727.931 316V313.576H732.059V300.952H728.171V298.528H734.723V313.576H738.563V316H727.931ZM749.977 316V314.488H749.857C749.305 315.904 748.681 316.216 746.425 316.216C743.017 316.216 742.273 315.544 742.273 312.52C742.273 308.968 743.305 308.2 748.057 308.2H749.761V307.6C749.761 305.728 749.329 305.32 747.409 305.32C745.729 305.32 745.369 305.632 745.393 307.024H742.705C742.609 303.808 743.449 303.088 747.337 303.088C751.465 303.088 752.377 303.88 752.377 307.552V316H749.977ZM749.737 310.216H747.577C745.441 310.216 744.985 310.552 744.985 312.136C744.985 313.48 745.321 313.768 746.857 313.768C749.161 313.768 749.689 313.12 749.737 310.216ZM756.064 316L760.24 309.616L756.304 303.328H759.568L761.872 307.672H761.944L764.272 303.328H767.584L763.528 309.616L767.68 316H764.392L761.92 311.704H761.8L759.352 316H756.064ZM773.167 321.28L775.351 315.16H774.511L770.431 303.328H773.311L776.287 312.472H776.383L779.311 303.328H782.191L775.999 321.28H773.167ZM788.829 316V312.352H792.477V316H788.829ZM803.46 300.784V297.376H807.012V300.784H803.46ZM800.34 316V313.6H804.276V305.728H800.58V303.328H806.964V313.6H810.684V316H800.34ZM819.434 316.24C814.658 316.24 813.602 315.04 813.602 309.64C813.602 304.264 814.658 303.088 819.434 303.088C824.186 303.088 825.242 304.264 825.242 309.64C825.242 315.04 824.186 316.24 819.434 316.24ZM819.434 313.672C821.906 313.672 822.458 312.952 822.458 309.64C822.458 306.376 821.906 305.656 819.434 305.656C816.938 305.656 816.386 306.376 816.386 309.64C816.386 312.952 816.938 313.672 819.434 313.672Z" fill="white"/>
</svg>
